<?xml version="1.0" encoding="UTF-8" standalone="no"?>
<svg
   width="805"
   height="600"
   version="1.1"
   id="svg24"
   sodipodi:docname="bumpchart.svg"
   inkscape:version="1.4.2 (f4327f4, 2025-05-13)"
   xmlns:inkscape="http://www.inkscape.org/namespaces/inkscape"
   xmlns:sodipodi="http://sodipodi.sourceforge.net/DTD/sodipodi-0.dtd"
   xmlns="http://www.w3.org/2000/svg"
   xmlns:svg="http://www.w3.org/2000/svg">
  <defs
     id="defs24" />
  <sodipodi:namedview
     id="namedview24"
     pagecolor="#ffffff"
     bordercolor="#000000"
     borderopacity="0.25"
     inkscape:showpageshadow="2"
     inkscape:pageopacity="0.0"
     inkscape:pagecheckerboard="0"
     inkscape:deskcolor="#d1d1d1"
     inkscape:zoom="1.2883333"
     inkscape:cx="402.45796"
     inkscape:cy="300"
     inkscape:window-width="1920"
     inkscape:window-height="991"
     inkscape:window-x="-9"
     inkscape:window-y="-9"
     inkscape:window-maximized="1"
     inkscape:current-layer="viz" />
  <rect
     width="805"
     height="600"
     x="0"
     y="0"
     fill="#FFFFFF"
     id="background" />
  <g
     id="viz">
    <g
       transform="translate(0,-10.866753)"
       id="g24">
      <g
         transform="translate(10,20)"
         id="g23">
        <g
           id="g6">
          <path
             fill="#9467bd"
             d="m 0,294.9695 c 8.5270222,0 8.5270222,0.78575 17.054044,0.78575 8.527023,0 8.527023,1.8235 17.054045,1.8235 8.527022,0 8.527022,1.3055 17.054044,1.3055 8.550384,0 8.550384,5.25875 17.100768,5.25875 8.527022,0 8.527022,-0.7665 17.054044,-0.7665 8.527023,0 8.527023,-3.32675 17.054045,-3.32675 8.52702,0 8.52702,1.26525 17.05404,1.26525 8.55039,0 8.55039,0.0752 17.10077,0.0752 8.52702,0 8.52702,-8.60725 17.05405,-8.60725 8.52702,0 8.52702,-11.5045 17.05404,-11.5045 8.52702,0 8.52702,-79.13575 17.05405,-79.13575 8.55038,0 8.55038,-0.4865 17.10076,-0.4865 8.52703,0 8.52703,-4.8685 17.05405,-4.8685 8.52702,0 8.52702,-16.15775 17.05404,-16.15775 8.52702,0 8.52702,-13.08725 17.05405,-13.08725 8.54941,0 8.54941,-5.69625 17.09882,-5.69625 8.52702,0 8.52702,-16.81575 17.05404,-16.81575 8.52702,0 8.52702,148.91875 17.05405,148.91875 8.52702,0 8.52702,14.1365 17.05404,14.1365 8.55038,0 8.55038,23.6005 17.10077,23.6005 8.52799,0 8.52799,33.3445 17.05599,33.3445 8.52702,0 8.52702,29.45425 17.05404,29.45425 8.52703,0 8.52703,18.33125 17.05405,18.33125 8.55038,0 8.55038,7.6125 17.10077,7.6125 8.52702,0 8.52702,24.647 17.05404,24.647 8.52702,0 8.52702,34.04625 17.05404,34.04625 8.52703,0 8.52703,15.715 17.05405,15.715 8.55038,0 8.55038,-2.78775 17.10077,-2.78775 8.52702,0 8.52702,-1.205 17.05404,-1.205 8.52702,0 8.52702,-11.688 17.05405,-11.688 8.52702,0 8.52702,14.81175 17.05404,14.81175 8.55038,0 8.55038,0.6465 17.10077,0.6465 8.52702,0 8.52702,-8.953 17.05404,-8.953 8.52702,0 8.52702,-19.376 17.05405,-19.376 8.52605,0 8.52605,-32.72325 17.05209,-32.72325 8.55039,0 8.55039,-16.52 17.10077,-16.52 8.528,0 8.528,-14.301 17.05599,-14.301 8.52703,0 8.52703,2.1315 17.05405,2.1315 8.52702,0 8.52702,-2.0975 17.05404,-2.0975 8.55039,0 8.55039,0.33883 17.10077,0.33883 8.52702,0 8.52702,-5.95709 17.05404,-5.95709 8.52703,0 8.52703,0.28209 17.05405,0.28209 8.52702,0 8.52702,15.18715 17.05404,15.18715 8.55039,0 8.55039,21.31339 17.10077,21.31339 8.52702,0 8.52702,18.36758 17.05405,18.36758 8.52702,0 8.52702,22.14523 17.05404,22.14523 v 0 c -8.52702,0 -8.52702,-22.14523 -17.05404,-22.14523 -8.52703,0 -8.52703,-18.36758 -17.05405,-18.36758 -8.55038,0 -8.55038,-21.31339 -17.10077,-21.31339 -8.52702,0 -8.52702,-15.18715 -17.05404,-15.18715 -8.52702,0 -8.52702,-0.28209 -17.05405,-0.28209 -8.52702,0 -8.52702,5.95709 -17.05404,5.95709 -8.55038,0 -8.55038,-0.33883 -17.10077,-0.33883 -8.52702,0 -8.52702,2.0975 -17.05404,2.0975 -8.52702,0 -8.52702,-2.1315 -17.05405,-2.1315 -8.52799,0 -8.52799,14.301 -17.05599,14.301 -8.55038,0 -8.55038,16.5515 -17.10077,16.5515 -8.52604,0 -8.52604,32.79675 -17.05209,32.79675 -8.52703,0 -8.52703,19.4005 -17.05405,19.4005 -8.52702,0 -8.52702,9.282 -17.05404,9.282 -8.55039,0 -8.55039,-0.2755 -17.10077,-0.2755 -8.52702,0 -8.52702,-11.85775 -17.05404,-11.85775 -8.52703,0 -8.52703,15.2475 -17.05405,15.2475 -8.52702,0 -8.52702,6.581 -17.05404,6.581 -8.55039,0 -8.55039,12.13975 -17.10077,12.13975 -8.52702,0 -8.52702,1.05 -17.05405,1.05 -8.52702,0 -8.52702,-19.88175 -17.05404,-19.88175 -8.52702,0 -8.52702,-19.6805 -17.05404,-19.6805 -8.55039,0 -8.55039,7.7315 -17.10077,7.7315 -8.52702,0 -8.52702,-2.74575 -17.05405,-2.74575 -8.52702,0 -8.52702,-4.55525 -17.05404,-4.55525 -8.528,0 -8.528,-34.6395 -17.05599,-34.6395 -8.55039,0 -8.55039,-16.5725 -17.10077,-16.5725 -8.52702,0 -8.52702,-19.915 -17.05404,-19.915 -8.52703,0 -8.52703,-132.10825 -17.05405,-132.10825 -8.52702,0 -8.52702,10.16925 -17.05404,10.16925 -8.54941,0 -8.54941,2.26625 -17.09882,2.26625 -8.52703,0 -8.52703,-3.30675 -17.05405,-3.30675 -8.52702,0 -8.52702,-0.44975 -17.05404,-0.44975 -8.52702,0 -8.52702,1.7885 -17.05405,1.7885 -8.55038,0 -8.55038,-0.4795 -17.10076,-0.4795 -8.52703,0 -8.52703,59.08075 -17.05405,59.08075 -8.52702,0 -8.52702,-2.1595 -17.05404,-2.1595 -8.52703,0 -8.52703,7.04275 -17.05405,7.04275 -8.55038,0 -8.55038,-5.10825 -17.10077,-5.10825 -8.52702,0 -8.52702,-0.11375 -17.05404,-0.11375 -8.527022,0 -8.527022,7.97825 -17.054045,7.97825 -8.527022,0 -8.527022,-11.0355 -17.054044,-11.0355 -8.550384,0 -8.550384,-13.36475 -17.100768,-13.36475 -8.527022,0 -8.527022,-6.1005 -17.054044,-6.1005 -8.527022,0 -8.527022,-3.304 -17.054045,-3.304 C 8.5270222,318.49475 8.5270222,315.2905 0,315.2905 Z"
             id="path1">
            <title
               id="title1">Tape</title>
          </path>
          <path
             fill="#1f77b4"
             d="m 0,315.2905 c 8.5270222,0 8.5270222,3.20425 17.054044,3.20425 8.527023,0 8.527023,3.304 17.054045,3.304 8.527022,0 8.527022,6.1005 17.054044,6.1005 8.550384,0 8.550384,13.36475 17.100768,13.36475 8.527022,0 8.527022,11.0355 17.054044,11.0355 8.527023,0 8.527023,-7.97825 17.054045,-7.97825 8.52702,0 8.52702,0.11375 17.05404,0.11375 8.55039,0 8.55039,5.10825 17.10077,5.10825 8.52702,0 8.52702,-6.04275 17.05405,-6.04275 8.52702,0 8.52702,2.1595 17.05404,2.1595 8.52702,0 8.52702,6.58175 17.05405,6.58175 8.55038,0 8.55038,-9.5305 17.10076,-9.5305 8.52703,0 8.52703,-14.0525 17.05405,-14.0525 8.52702,0 8.52702,-42.93875 17.05404,-42.93875 8.52702,0 8.52702,3.30675 17.05405,3.30675 8.54941,0 8.54941,-2.26625 17.09882,-2.26625 8.52702,0 8.52702,-10.16925 17.05404,-10.16925 8.52702,0 8.52702,-136.68975 17.05405,-136.68975 8.52702,0 8.52702,-20.8215 17.05404,-20.8215 8.55038,0 8.55038,-17.8955 17.10077,-17.8955 8.52799,0 8.52799,-35.3745 17.05599,-35.3745 8.52702,0 8.52702,-4.41525 17.05404,-4.41525 8.52703,0 8.52703,-3.73625 17.05405,-3.73625 8.55038,0 8.55038,5.1975 17.10077,5.1975 8.52702,0 8.52702,-25.802 17.05404,-25.802 8.52702,0 8.52702,-15.28625 17.05404,-15.28625 8.52703,0 8.52703,4.5675 17.05405,4.5675 8.55038,0 8.55038,10.10625 17.10077,10.10625 8.52702,0 8.52702,19.782 17.05404,19.782 8.52702,0 8.52702,11.3245 17.05405,11.3245 8.52702,0 8.52702,-8.58725 17.05404,-8.58725 8.55038,0 8.55038,0.966 17.10077,0.966 8.52702,0 8.52702,9.282 17.05404,9.282 8.52702,0 8.52702,19.4005 17.05405,19.4005 8.52605,0 8.52605,32.79675 17.05209,32.79675 8.55039,0 8.55039,17.5515 17.10077,17.5515 8.528,0 8.528,14.301 17.05599,14.301 8.52703,0 8.52703,-2.1315 17.05405,-2.1315 8.52702,0 8.52702,108.66548 17.05404,108.66548 8.55039,0 8.55039,-3.69629 17.10077,-3.69629 8.52702,0 8.52702,58.067 17.05404,58.067 8.52703,0 8.52703,8.86631 17.05405,8.86631 8.52702,0 8.52702,25.64392 17.05404,25.64392 8.55039,0 8.55039,22.72312 17.10077,22.72312 8.52702,0 8.52702,28.43136 17.05405,28.43136 8.52702,0 8.52702,22.71019 17.05404,22.71019 v 21.52937 c -8.52702,0 -8.52702,-19.76051 -17.05404,-19.76051 -8.52703,0 -8.52703,-15.82258 -17.05405,-15.82258 -8.55038,0 -8.55038,-20.18274 -17.10077,-20.18274 -8.52702,0 -8.52702,-14.61895 -17.05404,-14.61895 -8.52702,0 -8.52702,2.80252 -17.05405,2.80252 -8.52702,0 -8.52702,-45.33704 -17.05404,-45.33704 -8.55038,0 -8.55038,15.8007 -17.10077,15.8007 -8.52702,0 -8.52702,-87.12236 -17.05404,-87.12236 -8.52702,0 -8.52702,12.222 -17.05405,12.222 -8.52799,0 -8.52799,18.2595 -17.05599,18.2595 -8.55038,0 -8.55038,22.8245 -17.10077,22.8245 -8.52604,0 -8.52604,36.86025 -17.05209,36.86025 -8.52703,0 -8.52703,47.719 -17.05405,47.719 -8.52702,0 -8.52702,31.1535 -17.05404,31.1535 -8.55039,0 -8.55039,31.829 -17.10077,31.829 -8.52702,0 -8.52702,2.18575 -17.05404,2.18575 -8.52703,0 -8.52703,15.573 -17.05405,15.573 -8.52702,0 -8.52702,12.5965 -17.05404,12.5965 -8.55039,0 -8.55039,2.78775 -17.10077,2.78775 -8.52702,0 -8.52702,-15.715 -17.05405,-15.715 -8.52702,0 -8.52702,-34.04625 -17.05404,-34.04625 -8.52702,0 -8.52702,-24.647 -17.05404,-24.647 -8.55039,0 -8.55039,-7.6125 -17.10077,-7.6125 -8.52702,0 -8.52702,-18.33125 -17.05405,-18.33125 -8.52702,0 -8.52702,-29.45425 -17.05404,-29.45425 -8.528,0 -8.528,-33.3445 -17.05599,-33.3445 -8.55039,0 -8.55039,-23.6005 -17.10077,-23.6005 -8.52702,0 -8.52702,-14.1365 -17.05404,-14.1365 -8.52703,0 -8.52703,104.65775 -17.05405,104.65775 -8.52702,0 -8.52702,-20.27725 -17.05404,-20.27725 -8.54941,0 -8.54941,-14.81375 -17.09882,-14.81375 -8.52703,0 -8.52703,-21.02025 -17.05405,-21.02025 -8.52702,0 -8.52702,19.71625 -17.05404,19.71625 -8.52702,0 -8.52702,-4.8685 -17.05405,-4.8685 -8.55038,0 -8.55038,-0.4865 -17.10076,-0.4865 -8.52703,0 -8.52703,-9.59525 -17.05405,-9.59525 -8.52702,0 -8.52702,-2.7615 -17.05404,-2.7615 -8.52703,0 -8.52703,6.04275 -17.05405,6.04275 -8.55038,0 -8.55038,-5.10825 -17.10077,-5.10825 -8.52702,0 -8.52702,-0.11375 -17.05404,-0.11375 -8.527022,0 -8.527022,7.97825 -17.054045,7.97825 -8.527022,0 -8.527022,-11.0355 -17.054044,-11.0355 -8.550384,0 -8.550384,-13.36475 -17.100768,-13.36475 -8.527022,0 -8.527022,-6.1005 -17.054044,-6.1005 -8.527022,0 -8.527022,-3.304 -17.054045,-3.304 C 8.5270222,318.49475 8.5270222,315.2905 0,315.2905 Z"
             id="path2">
            <title
               id="title2">Disc</title>
          </path>
          <path
             fill="#ff7f0e"
             d="m 0,315.2905 c 8.5270222,0 8.5270222,3.20425 17.054044,3.20425 8.527023,0 8.527023,3.304 17.054045,3.304 8.527022,0 8.527022,6.1005 17.054044,6.1005 8.550384,0 8.550384,13.36475 17.100768,13.36475 8.527022,0 8.527022,11.0355 17.054044,11.0355 8.527023,0 8.527023,-7.97825 17.054045,-7.97825 8.52702,0 8.52702,0.11375 17.05404,0.11375 8.55039,0 8.55039,5.10825 17.10077,5.10825 8.52702,0 8.52702,-7.04275 17.05405,-7.04275 8.52702,0 8.52702,3.7615 17.05404,3.7615 8.52702,0 8.52702,9.59525 17.05405,9.59525 8.55038,0 8.55038,0.4865 17.10076,0.4865 8.52703,0 8.52703,4.8685 17.05405,4.8685 8.52702,0 8.52702,16.15775 17.05404,16.15775 8.52702,0 8.52702,12.08725 17.05405,12.08725 8.54941,0 8.54941,5.69625 17.09882,5.69625 8.52702,0 8.52702,16.81575 17.05404,16.81575 8.52702,0 8.52702,5.12925 17.05405,5.12925 8.52702,0 8.52702,20.8215 17.05404,20.8215 8.55038,0 8.55038,17.8955 17.10077,17.8955 8.52799,0 8.52799,35.3745 17.05599,35.3745 8.52702,0 8.52702,4.41525 17.05404,4.41525 8.52703,0 8.52703,3.73625 17.05405,3.73625 8.55038,0 8.55038,-5.1975 17.10077,-5.1975 8.52702,0 8.52702,25.802 17.05404,25.802 8.52702,0 8.52702,15.28625 17.05404,15.28625 8.52703,0 8.52703,-4.5675 17.05405,-4.5675 8.55038,0 8.55038,-10.10625 17.10077,-10.10625 8.52702,0 8.52702,-19.782 17.05404,-19.782 8.52702,0 8.52702,-13.3245 17.05405,-13.3245 8.52702,0 8.52702,-3.27825 17.05404,-3.27825 8.55038,0 8.55038,-54.3085 17.10077,-54.3085 8.52702,0 8.52702,-31.1535 17.05404,-31.1535 8.52702,0 8.52702,-47.719 17.05405,-47.719 8.52605,0 8.52605,-36.86025 17.05209,-36.86025 8.55039,0 8.55039,-22.8245 17.10077,-22.8245 8.528,0 8.528,-18.2595 17.05599,-18.2595 8.52703,0 8.52703,-12.222 17.05405,-12.222 8.52702,0 8.52702,-107.602 17.05404,-107.602 8.55039,0 8.55039,-0.33883 17.10077,-0.33883 8.52702,0 8.52702,5.95709 17.05404,5.95709 8.52703,0 8.52703,82.31337 17.05405,82.31337 8.52702,0 8.52702,41.88936 17.05404,41.88936 8.55039,0 8.55039,38.27369 17.10077,38.27369 8.52702,0 8.52702,41.21024 17.05405,41.21024 8.52702,0 8.52702,29.11377 17.05404,29.11377 v 29.8949 c -8.52702,0 -8.52702,-22.71019 -17.05404,-22.71019 -8.52703,0 -8.52703,-28.43136 -17.05405,-28.43136 -8.55038,0 -8.55038,-22.72312 -17.10077,-22.72312 -8.52702,0 -8.52702,-25.64392 -17.05404,-25.64392 -8.52702,0 -8.52702,-73.82755 -17.05405,-73.82755 -8.52702,0 -8.52702,6.89424 -17.05404,6.89424 -8.55038,0 -8.55038,3.69629 -17.10077,3.69629 -8.52702,0 -8.52702,103.59702 -17.05404,103.59702 -8.52702,0 -8.52702,4.928 -17.05405,4.928 -8.52799,0 -8.52799,17.0905 -17.05599,17.0905 -8.55038,0 -8.55038,23.731 -17.10077,23.731 -8.52604,0 -8.52604,26.58775 -17.05209,26.58775 -8.52703,0 -8.52703,21.735 -17.05405,21.735 -8.52702,0 -8.52702,5.754 -17.05404,5.754 -8.55039,0 -8.55039,28.3805 -17.10077,28.3805 -8.52702,0 -8.52702,-3.14425 -17.05404,-3.14425 -8.52703,0 -8.52703,13.3245 -17.05405,13.3245 -8.52702,0 -8.52702,19.782 -17.05404,19.782 -8.55039,0 -8.55039,10.10625 -17.10077,10.10625 -8.52702,0 -8.52702,4.5675 -17.05405,4.5675 -8.52702,0 -8.52702,-15.28625 -17.05404,-15.28625 -8.52702,0 -8.52702,-25.802 -17.05404,-25.802 -8.55039,0 -8.55039,5.1975 -17.10077,5.1975 -8.52702,0 -8.52702,-3.73625 -17.05405,-3.73625 -8.52702,0 -8.52702,-4.41525 -17.05404,-4.41525 -8.528,0 -8.528,-35.3745 -17.05599,-35.3745 -8.55039,0 -8.55039,-17.8955 -17.10077,-17.8955 -8.52702,0 -8.52702,-20.8215 -17.05404,-20.8215 -8.52703,0 -8.52703,-5.12925 -17.05405,-5.12925 -8.52702,0 -8.52702,-16.81575 -17.05404,-16.81575 -8.54941,0 -8.54941,-5.69625 -17.09882,-5.69625 -8.52703,0 -8.52703,-12.08725 -17.05405,-12.08725 -8.52702,0 -8.52702,-16.15775 -17.05404,-16.15775 -8.52702,0 -8.52702,-4.8685 -17.05405,-4.8685 -8.55038,0 -8.55038,-0.4865 -17.10076,-0.4865 -8.52703,0 -8.52703,-9.59525 -17.05405,-9.59525 -8.52702,0 -8.52702,-3.7615 -17.05404,-3.7615 -8.52703,0 -8.52703,7.04275 -17.05405,7.04275 -8.55038,0 -8.55038,-5.10825 -17.10077,-5.10825 -8.52702,0 -8.52702,-0.11375 -17.05404,-0.11375 -8.527022,0 -8.527022,7.97825 -17.054045,7.97825 -8.527022,0 -8.527022,-11.0355 -17.054044,-11.0355 -8.550384,0 -8.550384,-13.36475 -17.100768,-13.36475 -8.527022,0 -8.527022,-6.1005 -17.054044,-6.1005 -8.527022,0 -8.527022,-3.304 -17.054045,-3.304 C 8.5270222,318.49475 8.5270222,315.2905 0,315.2905 Z"
             id="path3">
            <title
               id="title3">Download</title>
          </path>
          <path
             fill="#2ca02c"
             d="m 0,315.2905 c 8.5270222,0 8.5270222,3.20425 17.054044,3.20425 8.527023,0 8.527023,3.304 17.054045,3.304 8.527022,0 8.527022,6.1005 17.054044,6.1005 8.550384,0 8.550384,13.36475 17.100768,13.36475 8.527022,0 8.527022,11.0355 17.054044,11.0355 8.527023,0 8.527023,-7.97825 17.054045,-7.97825 8.52702,0 8.52702,0.11375 17.05404,0.11375 8.55039,0 8.55039,5.10825 17.10077,5.10825 8.52702,0 8.52702,-7.04275 17.05405,-7.04275 8.52702,0 8.52702,3.7615 17.05404,3.7615 8.52702,0 8.52702,9.59525 17.05405,9.59525 8.55038,0 8.55038,0.4865 17.10076,0.4865 8.52703,0 8.52703,4.8685 17.05405,4.8685 8.52702,0 8.52702,16.15775 17.05404,16.15775 8.52702,0 8.52702,12.08725 17.05405,12.08725 8.54941,0 8.54941,1.65725 17.09882,1.65725 8.52702,0 8.52702,14.82425 17.05404,14.82425 8.52702,0 8.52702,2.76075 17.05405,2.76075 8.52702,0 8.52702,19.915 17.05404,19.915 8.55038,0 8.55038,16.5725 17.10077,16.5725 8.52799,0 8.52799,34.6395 17.05599,34.6395 8.52702,0 8.52702,4.55525 17.05404,4.55525 8.52703,0 8.52703,2.74575 17.05405,2.74575 8.55038,0 8.55038,-7.7315 17.10077,-7.7315 8.52702,0 8.52702,19.6805 17.05404,19.6805 8.52702,0 8.52702,19.88175 17.05404,19.88175 8.52703,0 8.52703,-1.05 17.05405,-1.05 8.55038,0 8.55038,-12.13975 17.10077,-12.13975 8.52702,0 8.52702,-26.3155 17.05404,-26.3155 8.52702,0 8.52702,-15.573 17.05405,-15.573 8.52702,0 8.52702,-2.18575 17.05404,-2.18575 8.55038,0 8.55038,1.5215 17.10077,1.5215 8.52702,0 8.52702,-5.754 17.05404,-5.754 8.52702,0 8.52702,-21.735 17.05405,-21.735 8.52605,0 8.52605,-14.33875 17.05209,-14.33875 8.55039,0 8.55039,-35.98 17.10077,-35.98 8.528,0 8.528,0.0655 17.05599,0.0655 8.52703,0 8.52703,1.792 17.05405,1.792 8.52702,0 8.52702,-2.16801 17.05404,-2.16801 8.55039,0 8.55039,-1.03841 17.10077,-1.03841 8.52702,0 8.52702,-6.57388 17.05404,-6.57388 8.52703,0 8.52703,10.06712 17.05405,10.06712 8.52702,0 8.52702,15.36022 17.05404,15.36022 8.55039,0 8.55039,21.38246 17.10077,21.38246 8.52702,0 8.52702,16.86995 17.05405,16.86995 8.52702,0 8.52702,22.55598 17.05404,22.55598 v 10.73175 c -8.52702,0 -8.52702,-22.14523 -17.05404,-22.14523 -8.52703,0 -8.52703,-18.36758 -17.05405,-18.36758 -8.55038,0 -8.55038,-21.31339 -17.10077,-21.31339 -8.52702,0 -8.52702,-15.18715 -17.05404,-15.18715 -8.52702,0 -8.52702,-10.00921 -17.05405,-10.00921 -8.52702,0 -8.52702,7.20408 -17.05404,7.20408 -8.55038,0 -8.55038,1.34999 -17.10077,1.34999 -8.52702,0 -8.52702,3.54881 -17.05404,3.54881 -8.52702,0 -8.52702,-0.9835 -17.05405,-0.9835 -8.52799,0 -8.52799,1.513 -17.05599,1.513 -8.55038,0 -8.55038,29.414 -17.10077,29.414 -8.52604,0 -8.52604,23.41075 -17.05209,23.41075 -8.52703,0 -8.52703,20.5135 -17.05405,20.5135 -8.52702,0 -8.52702,11.319 -17.05404,11.319 -8.55039,0 -8.55039,-1.546 -17.10077,-1.546 -8.52702,0 -8.52702,-5.01725 -17.05404,-5.01725 -8.52703,0 -8.52703,11.688 -17.05405,11.688 -8.52702,0 -8.52702,27.656 -17.05404,27.656 -8.55039,0 -8.55039,10.27425 -17.10077,10.27425 -8.52702,0 -8.52702,4.368 -17.05405,4.368 -8.52702,0 -8.52702,-15.28625 -17.05404,-15.28625 -8.52702,0 -8.52702,-26.124 -17.05404,-26.124 -8.55039,0 -8.55039,4.6585 -17.10077,4.6585 -8.52702,0 -8.52702,-3.29875 -17.05405,-3.29875 -8.52702,0 -8.52702,-4.17725 -17.05404,-4.17725 -8.528,0 -8.528,-35.2625 -17.05599,-35.2625 -8.55039,0 -8.55039,-18.529 -17.10077,-18.529 -8.52702,0 -8.52702,-21.2905 -17.05404,-21.2905 -8.52703,0 -8.52703,-0.86375 -17.05405,-0.86375 -8.52702,0 -8.52702,-16.81575 -17.05404,-16.81575 -8.54941,0 -8.54941,-5.69625 -17.09882,-5.69625 -8.52703,0 -8.52703,-12.08725 -17.05405,-12.08725 -8.52702,0 -8.52702,-16.15775 -17.05404,-16.15775 -8.52702,0 -8.52702,-4.8685 -17.05405,-4.8685 -8.55038,0 -8.55038,-0.4865 -17.10076,-0.4865 -8.52703,0 -8.52703,-9.59525 -17.05405,-9.59525 -8.52702,0 -8.52702,-3.7615 -17.05404,-3.7615 -8.52703,0 -8.52703,7.04275 -17.05405,7.04275 -8.55038,0 -8.55038,-5.10825 -17.10077,-5.10825 -8.52702,0 -8.52702,-0.11375 -17.05404,-0.11375 -8.527022,0 -8.527022,7.97825 -17.054045,7.97825 -8.527022,0 -8.527022,-11.0355 -17.054044,-11.0355 -8.550384,0 -8.550384,-13.36475 -17.100768,-13.36475 -8.527022,0 -8.527022,-6.1005 -17.054044,-6.1005 -8.527022,0 -8.527022,-3.304 -17.054045,-3.304 C 8.5270222,318.49475 8.5270222,315.2905 0,315.2905 Z"
             id="path4">
            <title
               id="title4">Other</title>
          </path>
          <path
             fill="#d62728"
             d="m 0,315.2905 c 8.5270222,0 8.5270222,3.20425 17.054044,3.20425 8.527023,0 8.527023,3.304 17.054045,3.304 8.527022,0 8.527022,6.1005 17.054044,6.1005 8.550384,0 8.550384,13.36475 17.100768,13.36475 8.527022,0 8.527022,11.0355 17.054044,11.0355 8.527023,0 8.527023,-7.97825 17.054045,-7.97825 8.52702,0 8.52702,0.11375 17.05404,0.11375 8.55039,0 8.55039,5.10825 17.10077,5.10825 8.52702,0 8.52702,-7.04275 17.05405,-7.04275 8.52702,0 8.52702,3.7615 17.05404,3.7615 8.52702,0 8.52702,9.59525 17.05405,9.59525 8.55038,0 8.55038,0.4865 17.10076,0.4865 8.52703,0 8.52703,4.8685 17.05405,4.8685 8.52702,0 8.52702,16.15775 17.05404,16.15775 8.52702,0 8.52702,11.08725 17.05405,11.08725 8.54941,0 8.54941,6.69625 17.09882,6.69625 8.52702,0 8.52702,16.81575 17.05404,16.81575 8.52702,0 8.52702,5.12925 17.05405,5.12925 8.52702,0 8.52702,20.8215 17.05404,20.8215 8.55038,0 8.55038,17.8955 17.10077,17.8955 8.52799,0 8.52799,35.3745 17.05599,35.3745 8.52702,0 8.52702,4.41525 17.05404,4.41525 8.52703,0 8.52703,3.73625 17.05405,3.73625 8.55038,0 8.55038,-5.1975 17.10077,-5.1975 8.52702,0 8.52702,25.802 17.05404,25.802 8.52702,0 8.52702,15.28625 17.05404,15.28625 8.52703,0 8.52703,-4.5675 17.05405,-4.5675 8.55038,0 8.55038,-10.10625 17.10077,-10.10625 8.52702,0 8.52702,-19.782 17.05404,-19.782 8.52702,0 8.52702,-14.3245 17.05405,-14.3245 8.52702,0 8.52702,9.34575 17.05404,9.34575 8.55038,0 8.55038,-10.078 17.10077,-10.078 8.52702,0 8.52702,-11.319 17.05404,-11.319 8.52702,0 8.52702,-20.5135 17.05405,-20.5135 8.52605,0 8.52605,-44.74825 17.05209,-44.74825 8.55039,0 8.55039,-8.0765 17.10077,-8.0765 8.528,0 8.528,-32.745 17.05599,-32.745 8.52703,0 8.52703,-4.928 17.05405,-4.928 8.52702,0 8.52702,-15.44064 17.05404,-15.44064 8.55039,0 8.55039,-15.8007 17.10077,-15.8007 8.52702,0 8.52702,-82.94621 17.05404,-82.94621 8.52703,0 8.52703,-90.64128 17.05405,-90.64128 8.52702,0 8.52702,-15.18715 17.05404,-15.18715 8.55039,0 8.55039,-21.31339 17.10077,-21.31339 8.52702,0 8.52702,-18.36758 17.05405,-18.36758 8.52702,0 8.52702,-22.145226 17.05404,-22.145226 V 390.64319 c -8.52702,0 -8.52702,-29.11377 -17.05404,-29.11377 -8.52703,0 -8.52703,-41.21024 -17.05405,-41.21024 -8.55038,0 -8.55038,-38.27369 -17.10077,-38.27369 -8.52702,0 -8.52702,-41.88936 -17.05404,-41.88936 -8.52702,0 -8.52702,73.00706 -17.05405,73.00706 -8.52702,0 -8.52702,69.89589 -17.05404,69.89589 -8.55038,0 -8.55038,1.03841 -17.10077,1.03841 -8.52702,0 -8.52702,2.16801 -17.05404,2.16801 -8.52702,0 -8.52702,-1.792 -17.05405,-1.792 -8.52799,0 -8.52799,29.2485 -17.05599,29.2485 -8.55038,0 -8.55038,6.666 -17.10077,6.666 -8.52604,0 -8.52604,42.95625 -17.05209,42.95625 -8.52703,0 -8.52703,19.4215 -17.05405,19.4215 -8.52702,0 -8.52702,8.89 -17.05404,8.89 -8.55039,0 -8.55039,4.3835 -17.10077,4.3835 -8.52702,0 -8.52702,-9.58725 -17.05404,-9.58725 -8.52703,0 -8.52703,14.3245 -17.05405,14.3245 -8.52702,0 -8.52702,19.782 -17.05404,19.782 -8.55039,0 -8.55039,10.10625 -17.10077,10.10625 -8.52702,0 -8.52702,4.5675 -17.05405,4.5675 -8.52702,0 -8.52702,-15.28625 -17.05404,-15.28625 -8.52702,0 -8.52702,-25.802 -17.05404,-25.802 -8.55039,0 -8.55039,5.1975 -17.10077,5.1975 -8.52702,0 -8.52702,-3.73625 -17.05405,-3.73625 -8.52702,0 -8.52702,-4.41525 -17.05404,-4.41525 -8.528,0 -8.528,-35.3745 -17.05599,-35.3745 -8.55039,0 -8.55039,-17.8955 -17.10077,-17.8955 -8.52702,0 -8.52702,-20.8215 -17.05404,-20.8215 -8.52703,0 -8.52703,-5.12925 -17.05405,-5.12925 -8.52702,0 -8.52702,-16.81575 -17.05404,-16.81575 -8.54941,0 -8.54941,-6.69625 -17.09882,-6.69625 -8.52703,0 -8.52703,-11.08725 -17.05405,-11.08725 -8.52702,0 -8.52702,-16.15775 -17.05404,-16.15775 -8.52702,0 -8.52702,-4.8685 -17.05405,-4.8685 -8.55038,0 -8.55038,-0.4865 -17.10076,-0.4865 -8.52703,0 -8.52703,-9.59525 -17.05405,-9.59525 -8.52702,0 -8.52702,-3.7615 -17.05404,-3.7615 -8.52703,0 -8.52703,7.04275 -17.05405,7.04275 -8.55038,0 -8.55038,-5.10825 -17.10077,-5.10825 -8.52702,0 -8.52702,-0.11375 -17.05404,-0.11375 -8.527022,0 -8.527022,7.97825 -17.054045,7.97825 -8.527022,0 -8.527022,-11.0355 -17.054044,-11.0355 -8.550384,0 -8.550384,-13.36475 -17.100768,-13.36475 -8.527022,0 -8.527022,-6.1005 -17.054044,-6.1005 -8.527022,0 -8.527022,-3.304 -17.054045,-3.304 C 8.5270222,318.49475 8.5270222,315.2905 0,315.2905 Z"
             id="path5">
            <title
               id="title5">Streaming</title>
          </path>
          <path
             fill="#8c564b"
             d="m 0,243.7095 c 8.5270222,0 8.5270222,-3.20425 17.054044,-3.20425 8.527023,0 8.527023,-3.304 17.054045,-3.304 8.527022,0 8.527022,-6.1005 17.054044,-6.1005 8.550384,0 8.550384,-13.36475 17.100768,-13.36475 8.527022,0 8.527022,-11.0355 17.054044,-11.0355 8.527023,0 8.527023,7.97825 17.054045,7.97825 8.52702,0 8.52702,-0.11375 17.05404,-0.11375 8.55039,0 8.55039,-5.10825 17.10077,-5.10825 8.52702,0 8.52702,5.04275 17.05405,5.04275 8.52702,0 8.52702,-2.7615 17.05404,-2.7615 8.52702,0 8.52702,74.84125 17.05405,74.84125 8.55038,0 8.55038,0.4795 17.10076,0.4795 8.52703,0 8.52703,-1.7885 17.05405,-1.7885 8.52702,0 8.52702,57.22575 17.05404,57.22575 8.52702,0 8.52702,21.02025 17.05405,21.02025 8.54941,0 8.54941,14.81375 17.09882,14.81375 8.52702,0 8.52702,20.27725 17.05404,20.27725 8.52702,0 8.52702,15.22575 17.05405,15.22575 8.52702,0 8.52702,21.2905 17.05404,21.2905 8.55038,0 8.55038,18.529 17.10077,18.529 8.52799,0 8.52799,35.2625 17.05599,35.2625 8.52702,0 8.52702,4.17725 17.05404,4.17725 8.52703,0 8.52703,3.29875 17.05405,3.29875 8.55038,0 8.55038,-4.6585 17.10077,-4.6585 8.52702,0 8.52702,26.124 17.05404,26.124 8.52702,0 8.52702,15.28625 17.05404,15.28625 8.52703,0 8.52703,-4.368 17.05405,-4.368 8.55038,0 8.55038,-10.27425 17.10077,-10.27425 8.52702,0 8.52702,-19.313 17.05404,-19.313 8.52702,0 8.52702,-15.2475 17.05405,-15.2475 8.52702,0 8.52702,7.65625 17.05404,7.65625 8.55038,0 8.55038,1.0595 17.10077,1.0595 8.52702,0 8.52702,-8.89 17.05404,-8.89 8.52702,0 8.52702,-19.4215 17.05405,-19.4215 8.52605,0 8.52605,-33.86775 17.05209,-33.86775 8.55039,0 8.55039,-15.7545 17.10077,-15.7545 8.528,0 8.528,-15.1725 17.05599,-15.1725 8.52703,0 8.52703,0.9835 17.05405,0.9835 8.52702,0 8.52702,-3.54881 17.05404,-3.54881 8.55039,0 8.55039,-1.34999 17.10077,-1.34999 8.52702,0 8.52702,-7.20408 17.05404,-7.20408 8.52703,0 8.52703,-13.74744 17.05405,-13.74744 8.52702,0 8.52702,14.61895 17.05404,14.61895 8.55039,0 8.55039,20.18274 17.10077,20.18274 8.52702,0 8.52702,15.82258 17.05405,15.82258 8.52702,0 8.52702,19.76051 17.05404,19.76051 v 17.65347 c -8.52702,0 -8.52702,-22.55598 -17.05404,-22.55598 -8.52703,0 -8.52703,-16.86995 -17.05405,-16.86995 -8.55038,0 -8.55038,-21.38246 -17.10077,-21.38246 -8.52702,0 -8.52702,-15.36022 -17.05404,-15.36022 -8.52702,0 -8.52702,10.60492 -17.05405,10.60492 -8.52702,0 -8.52702,5.95709 -17.05404,5.95709 -8.55038,0 -8.55038,-0.33883 -17.10077,-0.33883 -8.52702,0 -8.52702,2.0975 -17.05404,2.0975 -8.52702,0 -8.52702,-2.1315 -17.05405,-2.1315 -8.52799,0 -8.52799,14.301 -17.05599,14.301 -8.55038,0 -8.55038,15.52 -17.10077,15.52 -8.52604,0 -8.52604,32.72325 -17.05209,32.72325 -8.52703,0 -8.52703,19.376 -17.05405,19.376 -8.52702,0 -8.52702,8.953 -17.05404,8.953 -8.55039,0 -8.55039,-0.6465 -17.10077,-0.6465 -8.52702,0 -8.52702,-7.51625 -17.05404,-7.51625 -8.52703,0 -8.52703,15.3245 -17.05405,15.3245 -8.52702,0 -8.52702,19.782 -17.05404,19.782 -8.55039,0 -8.55039,10.10625 -17.10077,10.10625 -8.52702,0 -8.52702,4.5675 -17.05405,4.5675 -8.52702,0 -8.52702,-15.28625 -17.05404,-15.28625 -8.52702,0 -8.52702,-25.802 -17.05404,-25.802 -8.55039,0 -8.55039,5.1975 -17.10077,5.1975 -8.52702,0 -8.52702,-3.73625 -17.05405,-3.73625 -8.52702,0 -8.52702,-4.41525 -17.05404,-4.41525 -8.528,0 -8.528,-35.3745 -17.05599,-35.3745 -8.55039,0 -8.55039,-17.8955 -17.10077,-17.8955 -8.52702,0 -8.52702,-20.8215 -17.05404,-20.8215 -8.52703,0 -8.52703,-12.15975 -17.05405,-12.15975 -8.52702,0 -8.52702,-14.82425 -17.05404,-14.82425 -8.54941,0 -8.54941,-1.65725 -17.09882,-1.65725 -8.52703,0 -8.52703,-11.08725 -17.05405,-11.08725 -8.52702,0 -8.52702,-49.71125 -17.05404,-49.71125 -8.52702,0 -8.52702,14.0525 -17.05405,14.0525 -8.55038,0 -8.55038,9.5305 -17.10076,9.5305 -8.52703,0 -8.52703,-70.96325 -17.05405,-70.96325 -8.52702,0 -8.52702,11.5045 -17.05404,11.5045 -8.52703,0 -8.52703,8.60725 -17.05405,8.60725 -8.55038,0 -8.55038,-0.0752 -17.10077,-0.0752 -8.52702,0 -8.52702,-1.26525 -17.05404,-1.26525 -8.527022,0 -8.527022,3.32675 -17.054045,3.32675 -8.527022,0 -8.527022,0.7665 -17.054044,0.7665 -8.550384,0 -8.550384,-5.25875 -17.100768,-5.25875 -8.527022,0 -8.527022,-1.3055 -17.054044,-1.3055 -8.527022,0 -8.527022,-1.8235 -17.054045,-1.8235 C 8.5270222,294.75525 8.5270222,293.9695 0,293.9695 Z"
             id="path6">
            <title
               id="title6">Vinyl</title>
          </path>
        </g>
        <g
           id="xAxis"
           transform="translate(0,560)"
           fill="none"
           font-size="10px"
           font-family="sans-serif"
           text-anchor="middle">
          <path
             class="domain"
             stroke="currentColor"
             d="M 0,0 H 785"
             id="path7" />
          <g
             class="tick"
             opacity="1"
             transform="translate(34.108089)"
             id="g7">
            <line
               stroke="currentColor"
               y2="6"
               id="line7"
               x1="0"
               y1="0"
               x2="0" />
            <text
               fill="currentColor"
               y="9"
               dy="0.70999998em"
               id="text7">1975</text>
          </g>
          <g
             class="tick"
             opacity="1"
             transform="translate(119.42503)"
             id="g8">
            <line
               stroke="currentColor"
               y2="6"
               id="line8"
               x1="0"
               y1="0"
               x2="0" />
            <text
               fill="currentColor"
               y="9"
               dy="0.70999998em"
               id="text8">1980</text>
          </g>
          <g
             class="tick"
             opacity="1"
             transform="translate(204.7887)"
             id="g9">
            <line
               stroke="currentColor"
               y2="6"
               id="line9"
               x1="0"
               y1="0"
               x2="0" />
            <text
               fill="currentColor"
               y="9"
               dy="0.70999998em"
               id="text9">1985</text>
          </g>
          <g
             class="tick"
             opacity="1"
             transform="translate(290.1037)"
             id="g10">
            <line
               stroke="currentColor"
               y2="6"
               id="line10"
               x1="0"
               y1="0"
               x2="0" />
            <text
               fill="currentColor"
               y="9"
               dy="0.70999998em"
               id="text10">1990</text>
          </g>
          <g
             class="tick"
             opacity="1"
             transform="translate(375.42259)"
             id="g11">
            <line
               stroke="currentColor"
               y2="6"
               id="line11"
               x1="0"
               y1="0"
               x2="0" />
            <text
               fill="currentColor"
               y="9"
               dy="0.70999998em"
               id="text11">1995</text>
          </g>
          <g
             class="tick"
             opacity="1"
             transform="translate(460.73954)"
             id="g12">
            <line
               stroke="currentColor"
               y2="6"
               id="line12"
               x1="0"
               y1="0"
               x2="0" />
            <text
               fill="currentColor"
               y="9"
               dy="0.70999998em"
               id="text12">2000</text>
          </g>
          <g
             class="tick"
             opacity="1"
             transform="translate(546.10321)"
             id="g13">
            <line
               stroke="currentColor"
               y2="6"
               id="line13"
               x1="0"
               y1="0"
               x2="0" />
            <text
               fill="currentColor"
               y="9"
               dy="0.70999998em"
               id="text13">2005</text>
          </g>
          <g
             class="tick"
             opacity="1"
             transform="translate(631.42015)"
             id="g14">
            <line
               stroke="currentColor"
               y2="6"
               id="line14"
               x1="0"
               y1="0"
               x2="0" />
            <text
               fill="currentColor"
               y="9"
               dy="0.70999998em"
               id="text14">2010</text>
          </g>
          <g
             class="tick"
             opacity="1"
             transform="translate(716.7371)"
             id="g15">
            <line
               stroke="currentColor"
               y2="6"
               id="line15"
               x1="0"
               y1="0"
               x2="0" />
            <text
               fill="currentColor"
               y="9"
               dy="0.70999998em"
               id="text15">2015</text>
          </g>
        </g>
        <text
           y="556"
           x="785"
           text-anchor="end"
           style="font-weight:bold;font-size:12px;font-family:Arial, sans-serif;fill:#7b7b7b"
           id="text16">Year</text>
        <text
           x="4"
           text-anchor="start"
           dominant-baseline="hanging"
           style="font-weight:bold;font-size:12px;font-family:Arial, sans-serif;fill:#7b7b7b"
           id="text17">Revenues in millions</text>
        <g
           id="labels">
          <text
             x="320.4664"
             y="189.52748"
             text-anchor="middle"
             alignment-baseline="middle"
             style="font-weight:bold;font-size:25.2584px;font-family:Arial, sans-serif;fill:#000000;stroke-width:2.52584"
             id="text18"
             transform="scale(0.78681325,1.2709496)">Tape</text>
          <text
             x="472.74271"
             y="263.32986"
             text-anchor="middle"
             alignment-baseline="middle"
             style="font-weight:bold;font-size:77.4234px;font-family:Arial, sans-serif;fill:#000000;stroke-width:7.74234"
             id="text19">Disc</text>
          <text
             x="938.69336"
             y="151.95865"
             text-anchor="middle"
             alignment-baseline="middle"
             style="font-weight:bold;font-size:12.6521px;font-family:Arial, sans-serif;fill:#000000;stroke-width:1.26521"
             id="text20"
             transform="scale(0.72429569,1.3806516)">Download</text>
          <text
             x="546.10321"
             y="473.96774"
             text-anchor="middle"
             alignment-baseline="middle"
             style="font-weight:bold;font-size:10px;font-family:Arial, sans-serif;fill:#000000"
             id="text21">Other</text>
          <text
             x="785"
             y="236.09526"
             text-anchor="end"
             alignment-baseline="middle"
             style="font-weight:bold;font-size:10px;font-family:Arial, sans-serif;fill:#000000"
             id="text22">Streaming</text>
          <text
             x="85.316948"
             y="254.5385"
             text-anchor="middle"
             alignment-baseline="middle"
             style="font-weight:bold;font-size:10px;font-family:Arial, sans-serif;fill:#000000"
             id="text23">Vinyl</text>
        </g>
      </g>
      <text
         x="4"
         y="4"
         style="font-weight:bold;font-size:12px;font-family:Arial, sans-serif;dominant-baseline:hanging;fill:#000000"
         id="text24" />
    </g>
  </g>
</svg>
