<svg xmlns="http://www.w3.org/2000/svg" width="805" height="400"><rect width="805" height="400" x="0" y="0" fill="#FFFFFF" id="background"/><g id="viz"><g transform="translate(0,0)"><g transform="translate(10,20)"><g><path fill="#9467bd" d="M0,309.85322493705L2.842340733686487,309.78808199172505C5.684681467372974,309.7229390464,11.369362934745949,309.59265315575,17.054044402118922,309.7295082937C22.738725869491898,309.86636343165,28.42340733686487,310.2703595982,34.108088804237845,309.38136284125C39.79277027161081,308.49236608430004,45.47745173898378,306.31037640384994,51.16992044124357,303.345268669725C56.86238914350336,300.3801609356,62.56264508064995,296.6319351478,68.25511378290975,292.2415181414C73.94758248516952,287.85110113499996,79.63226395254252,282.81849291,85.31694541991548,282.86884784750004C91.00162688728847,282.919202785,96.68630835466143,288.052520885,102.37098982203442,292.1987622725C108.05567128940739,296.34500366000003,113.74035275678035,299.50416833500003,119.43282145904014,300.96623970875004C125.12529016129992,302.4283110825,130.8255460984465,302.193289155,136.5180148007063,302.34109025469996C142.21048350296607,302.4888913544,147.89516497033904,303.0195154813,153.57984643771204,301.07242322005C159.26452790508503,299.1253309588,164.949209372458,294.7005223094,170.63389083983097,289.44423366719997C176.31857230720394,284.18794502500003,182.00325377457693,278.10017638999994,187.69572247683672,275.3966143975C193.38819117909648,272.69305240499995,199.0884471162431,273.37369705500004,204.78091581850288,273.462231175C210.47338452076266,273.550765295,216.15806598813563,273.04718888499997,221.8427474555086,270.63898467705C227.52742892288157,268.2307804691,233.21211039025457,263.9179484632,238.8967918576275,259.89566865395C244.5814733250005,255.8733888447,250.26615479237344,252.14166123209998,255.95829902651295,250.62559257254998C261.6504432606525,249.10952391299998,267.3500502615585,249.80911420649997,273.042194495698,250.1657350555C278.73433872983753,250.52235590449996,284.4190201972105,250.53600730899998,290.10370166458347,253.5333588725C295.78838313195644,256.530710436,301.4730645993294,262.51176215849995,307.1577460667024,265.19585525975C312.84242753407534,267.879948361,318.5271090014483,267.267082841,324.2195777037081,268.30100898575C329.91204640596794,269.3349351305,335.61230234311455,272.01565294000005,341.30509551349456,273.55139397875C346.99788868387463,275.08713501750003,352.6832190874882,275.4778992855,358.36822502298145,279.04321521175C364.0532309584748,282.608531138,369.7379124258477,289.3483987225,375.42259389322066,294.837796858C381.10727536059363,300.3271949935,386.79195682796654,304.56612368,392.4844255302264,308.622765847C398.1768942324862,312.679408014,403.8771501696328,316.5537636615,409.56961887189254,319.1485034755C415.2620875741524,321.7432432895,420.94676904152533,323.05836726999996,426.6314505088983,325.396822867325C432.31613197627127,327.73527846465,438.0008134436442,331.0970656788,443.6854949110172,334.6942639402675C449.37017637839017,338.291462201735,455.05485784576314,342.12407151052,460.74732654802284,345.069442153945C466.4397952502827,348.01481279737,472.14005118742926,350.072944775435,477.8325198896891,351.6681277859675C483.5249885919489,353.2633107965,489.2096700593218,354.39554483949996,494.89435152669483,355.33153582849997C500.5790329940678,356.2675268175,506.26371446144077,357.0072747525,511.9483959288137,357.6724560702999C517.6330773961868,358.33763738809995,523.3177588635598,358.9282520887,529.0102275658195,359.260876997925C534.7026962680793,359.59350190715,540.4029522052259,359.668137025,546.0954209074856,359.73659559955007C551.7878896097454,359.8050541741,557.4725710771185,359.86733620535,563.1572525444914,359.9009579852075C568.8419340118644,359.93457976506505,574.5266154792374,359.93954129353,580.21097247849,359.94859987245246C585.8953294777427,359.957658451375,591.5793620088751,359.970814080755,597.2715062430146,359.9800636104225C602.9636504771541,359.98931314008996,608.6639064143008,359.994656570045,614.3566995846808,359.99732828502255C620.0494927550609,360,625.7348231586744,360,631.4198290941677,360C637.104835029661,360,642.789516497034,360,648.4741979644069,360C654.1588794317798,360,659.8435608991527,360,665.5360296014126,360C671.2284983036724,360,676.928754240819,360,682.6212229430788,360C688.3136916453386,360,693.9983731127114,360,699.6830545800844,360C705.3677360474575,360,711.0524175148306,360,716.7370989822035,360C722.4217804495765,360,728.1064619169493,360,733.7989306192093,360C739.491399321469,360,745.1916552586157,360,750.8841239608754,360C756.5765926631351,360,762.261274130508,360,767.945955597881,360C773.6306370652541,360,779.315318532627,360,782.1576592663135,360L785,360L785,360L782.1576592663135,360C779.315318532627,360,773.6306370652541,360,767.945955597881,360C762.261274130508,360,756.5765926631351,360,750.8841239608754,360C745.1916552586157,360,739.491399321469,360,733.7989306192093,360C728.1064619169493,360,722.4217804495765,360,716.7370989822035,360C711.0524175148306,360,705.3677360474575,360,699.6830545800844,360C693.9983731127114,360,688.3136916453386,360,682.6212229430788,360C676.928754240819,360,671.2284983036724,360,665.5360296014126,360C659.8435608991527,360,654.1588794317798,360,648.4741979644069,360C642.789516497034,360,637.104835029661,360,631.4198290941677,360C625.7348231586744,360,620.0494927550609,360,614.3566995846808,360C608.6639064143008,360,602.9636504771541,360,597.2715062430146,360C591.5793620088751,360,585.8953294777427,360,580.21097247849,360C574.5266154792374,360,568.8419340118644,360,563.1572525444914,360C557.4725710771185,360,551.7878896097454,360,546.0954209074856,360C540.4029522052259,360,534.7026962680793,360,529.0102275658195,360C523.3177588635598,360,517.6330773961868,360,511.9483959288137,360C506.26371446144077,360,500.5790329940678,360,494.89435152669483,360C489.2096700593218,360,483.5249885919489,360,477.8325198896891,360C472.14005118742926,360,466.4397952502827,360,460.74732654802295,360C455.05485784576314,360,449.37017637839017,360,443.6854949110172,360C438.0008134436442,360,432.31613197627127,360,426.6314505088983,360C420.94676904152533,360,415.2620875741524,360,409.56961887189254,360C403.8771501696328,360,398.1768942324862,360,392.4844255302264,360C386.79195682796654,360,381.10727536059363,360,375.42259389322066,360C369.7379124258477,360,364.0532309584748,360,358.36822502298145,360C352.6832190874882,360,346.99788868387463,360,341.30509551349456,360C335.61230234311455,360,329.91204640596794,360,324.2195777037081,360C318.5271090014483,360,312.84242753407534,360,307.1577460667024,360C301.4730645993294,360,295.78838313195644,360,290.10370166458347,360C284.4190201972105,360,278.73433872983753,360,273.042194495698,360C267.3500502615585,360,261.6504432606525,360,255.95829902651295,360C250.26615479237344,360,244.5814733250005,360,238.8967918576275,360C233.21211039025457,360,227.52742892288157,360,221.84274745550863,360C216.15806598813563,360,210.47338452076266,360,204.78091581850288,360C199.0884471162431,360,193.38819117909648,360,187.69572247683672,360C182.00325377457693,360,176.31857230720394,360,170.63389083983097,360C164.949209372458,360,159.26452790508503,360,153.57984643771204,360C147.89516497033904,360,142.21048350296607,360,136.5180148007063,360C130.8255460984465,360,125.12529016129992,360,119.43282145904014,360C113.74035275678035,360,108.05567128940739,360,102.3709898220344,360C96.68630835466143,360,91.00162688728847,360,85.31694541991548,360C79.63226395254252,360,73.94758248516952,360,68.25511378290975,360C62.56264508064995,360,56.86238914350336,360,51.16992044124357,360C45.47745173898378,360,39.79277027161081,360,34.108088804237845,360C28.42340733686487,360,22.738725869491898,360,17.054044402118922,360C11.369362934745949,360,5.684681467372974,360,2.842340733686487,360L0,360Z"><title>Tape</title></path><path fill="#1f77b4" d="M0,309.85322493705L2.842340733686487,309.78808199172505C5.684681467372974,309.7229390464,11.369362934745949,309.59265315575,17.054044402118922,309.7295082937C22.738725869491898,309.86636343165,28.42340733686487,310.2703595982,34.108088804237845,309.38136284125C39.79277027161081,308.49236608430004,45.47745173898378,306.31037640384994,51.16992044124357,303.345268669725C56.86238914350336,300.3801609356,62.56264508064995,296.6319351478,68.25511378290975,292.2415181414C73.94758248516952,287.85110113499996,79.63226395254252,282.81849291,85.31694541991548,282.86884784750004C91.00162688728847,282.919202785,96.68630835466143,288.052520885,102.37098982203442,292.1987622725C108.05567128940739,296.34500366000003,113.74035275678035,299.50416833500003,119.43282145904014,300.96623970875004C125.12529016129992,302.4283110825,130.8255460984465,302.193289155,136.5180148007063,302.34109025469996C142.21048350296607,302.4888913544,147.89516497033904,303.0195154813,153.57984643771204,300.962049214025C159.26452790508503,298.90458294675,164.949209372458,294.2590262853,170.63389083983097,288.3672860526C176.31857230720394,282.4755458199,182.00325377457693,275.33762201595,187.69572247683672,270.43080945922503C193.38819117909648,265.52399690249996,199.0884471162431,262.84829559300005,204.78091581850288,258.14831744099996C210.47338452076266,253.44833928900002,216.15806598813563,246.7240842945,221.8427474555086,237.66350564179996C227.52742892288157,228.60292698909996,233.21211039025457,217.20602467819995,238.8967918576275,207.26360469797498C244.5814733250005,197.32118471775001,250.26615479237344,188.8332470682,255.95829902651295,182.94520123614998C261.6504432606525,177.05715540409997,267.3500502615585,173.76900138955,273.042194495698,168.56154640935C278.73433872983753,163.35409142915,284.4190201972105,156.22733548329998,290.10370166458347,152.042528696775C295.78838313195644,147.85772191024998,301.4730645993294,146.61486428305,307.1577460667024,141.73658947147499C312.84242753407534,136.8583146599,318.5271090014483,128.34462266395,324.2195777037081,120.895325549075C329.91204640596794,113.4460284342,335.61230234311455,107.06112620040001,341.30509551349456,96.320602708375C346.99788868387463,85.58007921635,352.6832190874882,70.4839344661,358.36822502298145,63.26011617424998C364.0532309584748,56.036297882399985,369.7379124258477,56.68480604894999,375.42259389322066,57.701417196474985C381.10727536059363,58.718028344,386.79195682796654,60.10274247249998,392.4844255302264,63.38205758424999C398.1768942324862,66.66137269599999,403.8771501696328,71.835288791,409.56961887189254,70.05014346875C415.2620875741524,68.26499814649999,420.94676904152533,59.520791407,426.6314505088983,52.407533562575004C432.31613197627127,45.29427571815001,438.0008134436442,39.81196676880002,443.6854949110172,39.431679664017516C449.37017637839017,39.051392559235005,455.05485784576314,43.77312729901999,460.74732654802284,49.86428734069499C466.4397952502827,55.95544738236999,472.14005118742926,63.41603272593502,477.8325198896891,71.72868928089252C483.5249885919489,80.04134583585002,489.2096700593218,89.2060736022,494.89435152669483,97.78279484132501C500.5790329940678,106.35951608044998,506.26371446144077,114.34823079234998,511.9483959288137,119.036796496225C517.6330773961868,123.7253622001,523.3177588635598,125.11377889595,529.0102275658195,130.18441203095C534.7026962680793,135.25504516595,540.4029522052259,144.0078947401,546.0954209074856,153.15619693983C551.7878896097454,162.30449913956,557.4725710771185,171.84825396487,563.1572525444914,183.35340954825253C568.8419340118644,194.858565131635,574.5266154792374,208.32512147309,580.21097247849,221.82890664907254C585.8953294777427,235.332691825055,591.5793620088751,248.873705835565,597.2715062430146,259.02559520696997C602.9636504771541,269.177484578375,608.6639064143008,275.940249310675,614.3566995846808,282.25633170757504C620.0494927550609,288.572414104475,625.7348231586744,294.441814165975,631.4198290941677,298.500097782965C637.104835029661,302.558381399955,642.789516497034,304.805548572435,648.4741979644069,307.82152392218995C654.1588794317798,310.837499271945,659.8435608991527,314.622282798975,665.5360296014126,317.5635984925525C671.2284983036724,320.50491418613,676.928754240819,322.602762046255,682.6212229430788,324.72755615348C688.3136916453386,326.852350260705,693.9983731127114,329.00409061503,699.6830545800844,330.9846971459125C705.3677360474575,332.96530367679503,711.0524175148306,334.77477638423505,716.7370989822035,336.56697864943254C722.4217804495765,338.35918091463003,728.1064619169493,340.134112737585,733.7989306192093,341.27372850536C739.491399321469,342.41334427313495,745.1916552586157,342.91764398572997,750.8841239608754,344.15261698001746C756.5765926631351,345.387589974305,762.261274130508,347.35323625028497,767.945955597881,348.5784337312225C773.6306370652541,349.80363121216004,779.315318532627,350.288379898055,782.1576592663135,350.5307542410025L785,350.77312858395L785,360L782.1576592663135,360C779.315318532627,360,773.6306370652541,360,767.945955597881,360C762.261274130508,360,756.5765926631351,360,750.8841239608754,360C745.1916552586157,360,739.491399321469,360,733.7989306192093,360C728.1064619169493,360,722.4217804495765,360,716.7370989822035,360C711.0524175148306,360,705.3677360474575,360,699.6830545800844,360C693.9983731127114,360,688.3136916453386,360,682.6212229430788,360C676.928754240819,360,671.2284983036724,360,665.5360296014126,360C659.8435608991527,360,654.1588794317798,360,648.4741979644069,360C642.789516497034,360,637.104835029661,360,631.4198290941677,360C625.7348231586744,360,620.0494927550609,360,614.3566995846808,359.99732828502255C608.6639064143008,359.994656570045,602.9636504771541,359.98931314008996,597.2715062430146,359.9800636104225C591.5793620088751,359.970814080755,585.8953294777427,359.957658451375,580.21097247849,359.94859987245246C574.5266154792374,359.93954129353,568.8419340118644,359.93457976506505,563.1572525444914,359.90095798520747C557.4725710771185,359.86733620535,551.7878896097454,359.8050541741,546.0954209074856,359.73659559954996C540.4029522052259,359.668137025,534.7026962680793,359.59350190715,529.0102275658195,359.260876997925C523.3177588635598,358.9282520887,517.6330773961868,358.33763738809995,511.9483959288137,357.67245607030003C506.26371446144077,357.0072747525,500.5790329940678,356.2675268175,494.89435152669483,355.33153582849997C489.2096700593218,354.39554483949996,483.5249885919489,353.2633107965,477.8325198896891,351.6681277859675C472.14005118742926,350.072944775435,466.4397952502827,348.01481279737,460.74732654802295,345.069442153945C455.05485784576314,342.12407151052,449.37017637839017,338.291462201735,443.6854949110172,334.6942639402675C438.0008134436442,331.0970656788,432.31613197627127,327.73527846465,426.6314505088983,325.396822867325C420.94676904152533,323.05836726999996,415.2620875741524,321.7432432895,409.56961887189254,319.1485034755C403.8771501696328,316.5537636615,398.1768942324862,312.679408014,392.4844255302264,308.622765847C386.79195682796654,304.56612368,381.10727536059363,300.3271949935,375.42259389322066,294.837796858C369.7379124258477,289.3483987225,364.0532309584748,282.608531138,358.36822502298145,279.04321521175C352.6832190874882,275.4778992855,346.99788868387463,275.08713501750003,341.30509551349456,273.55139397875C335.61230234311455,272.01565294000005,329.91204640596794,269.3349351305,324.2195777037081,268.30100898575C318.5271090014483,267.267082841,312.84242753407534,267.879948361,307.1577460667024,265.19585525975C301.4730645993294,262.51176215849995,295.78838313195644,256.530710436,290.10370166458347,253.5333588725C284.4190201972105,250.53600730899998,278.73433872983753,250.52235590449996,273.042194495698,250.1657350555C267.3500502615585,249.80911420649997,261.6504432606525,249.10952391299998,255.95829902651295,250.62559257254998C250.26615479237344,252.14166123209998,244.5814733250005,255.8733888447,238.8967918576275,259.89566865395C233.21211039025457,263.9179484632,227.52742892288157,268.2307804691,221.84274745550863,270.63898467705C216.15806598813563,273.04718888499997,210.47338452076266,273.550765295,204.78091581850288,273.462231175C199.0884471162431,273.37369705500004,193.38819117909648,272.69305240499995,187.69572247683672,275.3966143975C182.00325377457693,278.10017638999994,176.31857230720394,284.18794502500003,170.63389083983097,289.44423366719997C164.949209372458,294.7005223094,159.26452790508503,299.1253309588,153.57984643771204,301.07242322005004C147.89516497033904,303.0195154813,142.21048350296607,302.4888913544,136.5180148007063,302.34109025469996C130.8255460984465,302.193289155,125.12529016129992,302.4283110825,119.43282145904014,300.96623970875C113.74035275678035,299.50416833500003,108.05567128940739,296.34500366000003,102.3709898220344,292.1987622725C96.68630835466143,288.052520885,91.00162688728847,282.919202785,85.31694541991548,282.86884784750004C79.63226395254252,282.81849291,73.94758248516952,287.85110113499996,68.25511378290975,292.2415181414C62.56264508064995,296.6319351478,56.86238914350336,300.3801609356,51.16992044124357,303.345268669725C45.47745173898378,306.31037640384994,39.79277027161081,308.49236608430004,34.108088804237845,309.38136284125C28.42340733686487,310.2703595982,22.738725869491898,309.86636343165,17.054044402118922,309.7295082937C11.369362934745949,309.59265315575,5.684681467372974,309.7229390464,2.842340733686487,309.78808199172505L0,309.85322493705Z"><title>Disc</title></path><path fill="#ff7f0e" d="M0,309.85322493705L2.842340733686487,309.78808199172505C5.684681467372974,309.7229390464,11.369362934745949,309.59265315575,17.054044402118922,309.7295082937C22.738725869491898,309.86636343165,28.42340733686487,310.2703595982,34.108088804237845,309.38136284125C39.79277027161081,308.49236608430004,45.47745173898378,306.31037640384994,51.16992044124357,303.345268669725C56.86238914350336,300.3801609356,62.56264508064995,296.6319351478,68.25511378290975,292.2415181414C73.94758248516952,287.85110113499996,79.63226395254252,282.81849291,85.31694541991548,282.86884784750004C91.00162688728847,282.919202785,96.68630835466143,288.052520885,102.37098982203442,292.1987622725C108.05567128940739,296.34500366000003,113.74035275678035,299.50416833500003,119.43282145904014,300.96623970875004C125.12529016129992,302.4283110825,130.8255460984465,302.193289155,136.5180148007063,302.34109025469996C142.21048350296607,302.4888913544,147.89516497033904,303.0195154813,153.57984643771204,300.962049214025C159.26452790508503,298.90458294675,164.949209372458,294.2590262853,170.63389083983097,288.3672860526C176.31857230720394,282.4755458199,182.00325377457693,275.33762201595,187.69572247683672,270.43080945922503C193.38819117909648,265.52399690249996,199.0884471162431,262.84829559300005,204.78091581850288,258.14831744099996C210.47338452076266,253.44833928900002,216.15806598813563,246.7240842945,221.8427474555086,237.66350564179996C227.52742892288157,228.60292698909996,233.21211039025457,217.20602467819995,238.8967918576275,207.26360469797498C244.5814733250005,197.32118471775001,250.26615479237344,188.8332470682,255.95829902651295,182.94520123614998C261.6504432606525,177.05715540409997,267.3500502615585,173.76900138955,273.042194495698,168.56154640935C278.73433872983753,163.35409142915,284.4190201972105,156.22733548329998,290.10370166458347,152.042528696775C295.78838313195644,147.85772191024998,301.4730645993294,146.61486428305,307.1577460667024,141.73658947147499C312.84242753407534,136.8583146599,318.5271090014483,128.34462266395,324.2195777037081,120.895325549075C329.91204640596794,113.4460284342,335.61230234311455,107.06112620040001,341.30509551349456,96.320602708375C346.99788868387463,85.58007921635,352.6832190874882,70.4839344661,358.36822502298145,63.26011617424998C364.0532309584748,56.036297882399985,369.7379124258477,56.68480604894999,375.42259389322066,57.701417196474985C381.10727536059363,58.718028344,386.79195682796654,60.10274247249998,392.4844255302264,63.38205758424999C398.1768942324862,66.66137269599999,403.8771501696328,71.835288791,409.56961887189254,70.05014346875C415.2620875741524,68.26499814649999,420.94676904152533,59.520791407,426.6314505088983,52.407533562575004C432.31613197627127,45.29427571815001,438.0008134436442,39.81196676880002,443.6854949110172,39.431679664017516C449.37017637839017,39.051392559235005,455.05485784576314,43.77312729901999,460.74732654802284,49.86428734069499C466.4397952502827,55.95544738236999,472.14005118742926,63.41603272593502,477.8325198896891,71.72868928089252C483.5249885919489,80.04134583585002,489.2096700593218,89.2060736022,494.89435152669483,97.78279484132501C500.5790329940678,106.35951608044998,506.26371446144077,114.34823079234998,511.9483959288137,118.41592487754998C517.6330773961868,122.48361896274999,523.3177588635598,122.63029242124999,529.0102275658195,124.67604377052498C534.7026962680793,126.72179511979998,540.4029522052259,130.66662435984998,546.0954209074856,135.20472116910497C551.7878896097454,139.74281797835997,557.4725710771185,144.87418235681997,563.1572525444914,152.02802813330248C568.8419340118644,159.18187390978497,574.5266154792374,168.35820108429002,580.21097247849,179.1197752026225C585.8953294777427,189.881349320955,591.5793620088751,202.22817038311499,597.2715062430146,211.83165535687C602.9636504771541,221.435140330625,608.6639064143008,228.29528921597498,614.3566995846808,234.69005274589998C620.0494927550609,241.084816275825,625.7348231586744,247.01419445032502,631.4198290941677,250.75188888769C637.104835029661,254.489583325055,642.789516497034,256.035594025285,648.4741979644069,258.549617398465C654.1588794317798,261.063640771645,659.8435608991527,264.545676817775,665.5360296014126,267.72001978027754C671.2284983036724,270.89436274278,676.928754240819,273.761012621655,682.6212229430788,277.389424553705C688.3136916453386,281.01783648575497,693.9983731127114,285.40801047097995,699.6830545800844,289.1698045715225C705.3677360474575,292.93159867206504,711.0524175148306,296.065012887925,716.7370989822035,299.83286479618005C722.4217804495765,303.600716704435,728.1064619169493,308.00300630508497,733.7989306192093,311.717374446885C739.491399321469,315.431742588685,745.1916552586157,318.458189271635,750.8841239608754,321.97072478977C756.5765926631351,325.483260307905,762.261274130508,329.481884661225,767.945955597881,332.2279499006725C773.6306370652541,334.97401514012,779.315318532627,336.46752126569504,782.1576592663135,337.21427432848253L785,337.96102739127L785,350.77312858395L782.1576592663135,350.5307542410025C779.315318532627,350.288379898055,773.6306370652541,349.80363121216004,767.945955597881,348.5784337312225C762.261274130508,347.35323625028497,756.5765926631351,345.387589974305,750.8841239608754,344.1526169800175C745.1916552586157,342.91764398572997,739.491399321469,342.41334427313495,733.7989306192093,341.27372850536C728.1064619169493,340.134112737585,722.4217804495765,338.35918091463003,716.7370989822035,336.56697864943254C711.0524175148306,334.77477638423505,705.3677360474575,332.96530367679503,699.6830545800844,330.98469714591255C693.9983731127114,329.00409061503,688.3136916453386,326.852350260705,682.6212229430788,324.72755615348C676.928754240819,322.602762046255,671.2284983036724,320.50491418613,665.5360296014126,317.5635984925525C659.8435608991527,314.622282798975,654.1588794317798,310.837499271945,648.4741979644069,307.82152392218995C642.789516497034,304.805548572435,637.104835029661,302.558381399955,631.4198290941677,298.50009778296504C625.7348231586744,294.441814165975,620.0494927550609,288.572414104475,614.3566995846808,282.25633170757504C608.6639064143008,275.940249310675,602.9636504771541,269.177484578375,597.2715062430146,259.02559520696997C591.5793620088751,248.873705835565,585.8953294777427,235.332691825055,580.21097247849,221.82890664907248C574.5266154792374,208.32512147309,568.8419340118644,194.858565131635,563.1572525444914,183.35340954825247C557.4725710771185,171.84825396487,551.7878896097454,162.30449913956,546.0954209074856,153.15619693983C540.4029522052259,144.0078947401,534.7026962680793,135.25504516595,529.0102275658195,130.18441203095C523.3177588635598,125.11377889595,517.6330773961868,123.7253622001,511.9483959288137,119.036796496225C506.26371446144077,114.34823079234998,500.5790329940678,106.35951608044998,494.89435152669483,97.78279484132501C489.2096700593218,89.2060736022,483.5249885919489,80.04134583585002,477.8325198896891,71.72868928089252C472.14005118742926,63.41603272593502,466.4397952502827,55.95544738236999,460.74732654802295,49.86428734069499C455.05485784576314,43.77312729901999,449.37017637839017,39.051392559235005,443.6854949110172,39.431679664017516C438.0008134436442,39.81196676880002,432.31613197627127,45.29427571815001,426.6314505088983,52.407533562575004C420.94676904152533,59.520791407,415.2620875741524,68.26499814649999,409.56961887189254,70.05014346875C403.8771501696328,71.835288791,398.1768942324862,66.66137269599999,392.4844255302264,63.38205758424999C386.79195682796654,60.10274247249998,381.10727536059363,58.718028344,375.42259389322066,57.701417196474985C369.7379124258477,56.68480604894999,364.0532309584748,56.036297882399985,358.36822502298145,63.26011617424998C352.6832190874882,70.4839344661,346.99788868387463,85.58007921635,341.30509551349456,96.320602708375C335.61230234311455,107.06112620040001,329.91204640596794,113.4460284342,324.2195777037081,120.895325549075C318.5271090014483,128.34462266395,312.84242753407534,136.8583146599,307.1577460667024,141.736589471475C301.4730645993294,146.61486428305,295.78838313195644,147.85772191024998,290.10370166458347,152.04252869677498C284.4190201972105,156.22733548329998,278.73433872983753,163.35409142915,273.042194495698,168.56154640935C267.3500502615585,173.76900138955,261.6504432606525,177.05715540409997,255.95829902651295,182.94520123614998C250.26615479237344,188.8332470682,244.5814733250005,197.32118471775001,238.8967918576275,207.26360469797498C233.21211039025457,217.20602467819995,227.52742892288157,228.60292698909996,221.84274745550863,237.66350564179996C216.15806598813563,246.7240842945,210.47338452076266,253.44833928900002,204.78091581850288,258.14831744099996C199.0884471162431,262.84829559300005,193.38819117909648,265.52399690249996,187.69572247683672,270.43080945922503C182.00325377457693,275.33762201595,176.31857230720394,282.4755458199,170.63389083983097,288.3672860526C164.949209372458,294.2590262853,159.26452790508503,298.90458294675,153.57984643771204,300.962049214025C147.89516497033904,303.0195154813,142.21048350296607,302.4888913544,136.5180148007063,302.34109025469996C130.8255460984465,302.193289155,125.12529016129992,302.4283110825,119.43282145904014,300.96623970875C113.74035275678035,299.50416833500003,108.05567128940739,296.34500366000003,102.3709898220344,292.1987622725C96.68630835466143,288.052520885,91.00162688728847,282.919202785,85.31694541991548,282.86884784750004C79.63226395254252,282.81849291,73.94758248516952,287.85110113499996,68.25511378290975,292.2415181414C62.56264508064995,296.6319351478,56.86238914350336,300.3801609356,51.16992044124357,303.345268669725C45.47745173898378,306.31037640384994,39.79277027161081,308.49236608430004,34.108088804237845,309.38136284125C28.42340733686487,310.2703595982,22.738725869491898,309.86636343165,17.054044402118922,309.7295082937C11.369362934745949,309.59265315575,5.684681467372974,309.7229390464,2.842340733686487,309.78808199172505L0,309.85322493705Z"><title>Download</title></path><path fill="#2ca02c" d="M0,309.85322493705L2.842340733686487,309.78808199172505C5.684681467372974,309.7229390464,11.369362934745949,309.59265315575,17.054044402118922,309.7295082937C22.738725869491898,309.86636343165,28.42340733686487,310.2703595982,34.108088804237845,309.38136284125C39.79277027161081,308.49236608430004,45.47745173898378,306.31037640384994,51.16992044124357,303.345268669725C56.86238914350336,300.3801609356,62.56264508064995,296.6319351478,68.25511378290975,292.2415181414C73.94758248516952,287.85110113499996,79.63226395254252,282.81849291,85.31694541991548,282.86884784750004C91.00162688728847,282.919202785,96.68630835466143,288.052520885,102.37098982203442,292.1987622725C108.05567128940739,296.34500366000003,113.74035275678035,299.50416833500003,119.43282145904014,300.96623970875004C125.12529016129992,302.4283110825,130.8255460984465,302.193289155,136.5180148007063,302.34109025469996C142.21048350296607,302.4888913544,147.89516497033904,303.0195154813,153.57984643771204,300.962049214025C159.26452790508503,298.90458294675,164.949209372458,294.2590262853,170.63389083983097,288.3672860526C176.31857230720394,282.4755458199,182.00325377457693,275.33762201595,187.69572247683672,270.43080945922503C193.38819117909648,265.52399690249996,199.0884471162431,262.84829559300005,204.78091581850288,258.14831744099996C210.47338452076266,253.44833928900002,216.15806598813563,246.7240842945,221.8427474555086,237.66350564179996C227.52742892288157,228.60292698909996,233.21211039025457,217.20602467819995,238.8967918576275,207.26360469797498C244.5814733250005,197.32118471775001,250.26615479237344,188.8332470682,255.95829902651295,182.35038636115C261.6504432606525,175.86752565409998,267.3500502615585,171.38974188954998,273.042194495698,165.33971420284996C278.73433872983753,159.28968651614994,284.4190201972105,151.66741490729996,290.10370166458347,147.52321793527497C295.78838313195644,143.37902096324999,301.4730645993294,142.71289862805,307.1577460667024,137.960154259975C312.84242753407534,133.20740989190003,318.5271090014483,124.36804349095003,324.2195777037081,116.52949749032503C329.91204640596794,108.69095148970003,335.61230234311455,101.85322588940001,341.30509551349456,90.833079128875C346.99788868387463,79.81293236834999,352.6832190874882,64.61036444759998,358.36822502298145,57.40609529399998C364.0532309584748,50.20182614039999,369.7379124258477,50.99585575395,375.42259389322066,52.04736350847501C381.10727536059363,53.098871263000014,386.79195682796654,54.4078571585,392.4844255302264,57.321243708999994C398.1768942324862,60.23463025949999,403.8771501696328,64.752417465,409.56961887189254,61.93711229424999C415.2620875741524,59.12180712349999,420.94676904152533,48.97340957649999,426.6314505088983,41.70481715557499C432.31613197627127,34.436224734650004,438.0008134436442,30.04743743980001,443.6854949110172,30.612770915517512C449.37017637839017,31.178104391235006,455.05485784576314,36.69755863751999,460.74732654802284,43.0241714019175C466.4397952502827,49.350784166315,472.14005118742926,56.48455544882503,477.8325198896891,64.78870414140754C483.5249885919489,73.09285283399004,489.2096700593218,82.56737893664503,494.89435152669483,90.93693373719752C500.5790329940678,99.30648853775,506.26371446144077,106.57107203620001,511.9483959288137,109.6171303378925C517.6330773961868,112.66318863958499,523.3177588635598,111.49072174451997,529.0102275658195,112.94265761252247C534.7026962680793,114.39459348052497,540.4029522052259,118.47093211159499,546.0954209074856,123.6417035047625C551.7878896097454,128.81247489793,557.4725710771185,135.077679053195,563.1572525444914,142.73054050739998C568.8419340118644,150.38340196160502,574.5266154792374,159.42392071475,580.21097247849,170.94323505244998C585.8953294777427,182.46254939015,591.5793620088751,196.460659312405,597.2715062430146,206.3284466755525C602.9636504771541,216.1962340387,608.6639064143008,221.93369884274,614.3566995846808,227.91944291778C620.0494927550609,233.90518699282003,625.7348231586744,240.13921033886004,631.4198290941677,244.12837186597503C637.104835029661,248.11753339309004,642.789516497034,249.86183310128,648.4741979644069,252.6050176589025C654.1588794317798,255.34820221652498,659.8435608991527,259.09027162358,665.5360296014126,262.43155615195C671.2284983036724,265.77284068032003,676.928754240819,268.713340330005,682.6212229430788,272.4405211238175C688.3136916453386,276.16770191763,693.9983731127114,280.68156385557,699.6830545800844,284.51057386226245C705.3677360474575,288.339583868955,711.0524175148306,291.4837419444,716.7370989822035,295.27962326685C722.4217804495765,299.0755045893,728.1064619169493,303.523109158755,733.7989306192093,307.2806982996025C739.491399321469,311.03828744045,745.1916552586157,314.10586115269,750.8841239608754,317.54717935362004C756.5765926631351,320.98849755455,762.261274130508,324.80356024417,767.945955597881,327.50160554668247C773.6306370652541,330.199650849195,779.315318532627,331.7806787646,782.1576592663135,332.5711927223025L785,333.361706680005L785,337.96102739127L782.1576592663135,337.21427432848253C779.315318532627,336.46752126569504,773.6306370652541,334.97401514012,767.945955597881,332.2279499006725C762.261274130508,329.481884661225,756.5765926631351,325.483260307905,750.8841239608754,321.97072478977C745.1916552586157,318.458189271635,739.491399321469,315.431742588685,733.7989306192093,311.717374446885C728.1064619169493,308.00300630508497,722.4217804495765,303.600716704435,716.7370989822035,299.83286479618005C711.0524175148306,296.065012887925,705.3677360474575,292.93159867206504,699.6830545800844,289.1698045715225C693.9983731127114,285.40801047097995,688.3136916453386,281.01783648575497,682.6212229430788,277.389424553705C676.928754240819,273.761012621655,671.2284983036724,270.89436274278,665.5360296014126,267.72001978027754C659.8435608991527,264.545676817775,654.1588794317798,261.063640771645,648.4741979644069,258.549617398465C642.789516497034,256.035594025285,637.104835029661,254.489583325055,631.4198290941677,250.75188888769C625.7348231586744,247.01419445032502,620.0494927550609,241.084816275825,614.3566995846808,234.69005274589998C608.6639064143008,228.29528921597498,602.9636504771541,221.435140330625,597.2715062430146,211.83165535687C591.5793620088751,202.22817038311499,585.8953294777427,189.881349320955,580.21097247849,179.1197752026225C574.5266154792374,168.35820108429002,568.8419340118644,159.18187390978497,563.1572525444914,152.02802813330248C557.4725710771185,144.87418235681997,551.7878896097454,139.74281797835997,546.0954209074856,135.20472116910497C540.4029522052259,130.66662435984998,534.7026962680793,126.72179511979998,529.0102275658195,124.67604377052498C523.3177588635598,122.63029242124999,517.6330773961868,122.48361896274999,511.9483959288137,118.41592487754998C506.26371446144077,114.34823079234998,500.5790329940678,106.35951608044998,494.89435152669483,97.78279484132501C489.2096700593218,89.2060736022,483.5249885919489,80.04134583585002,477.8325198896891,71.72868928089252C472.14005118742926,63.41603272593502,466.4397952502827,55.95544738236999,460.74732654802295,49.86428734069499C455.05485784576314,43.77312729901999,449.37017637839017,39.051392559235005,443.6854949110172,39.431679664017516C438.0008134436442,39.81196676880002,432.31613197627127,45.29427571815001,426.6314505088983,52.407533562575004C420.94676904152533,59.520791407,415.2620875741524,68.26499814649999,409.56961887189254,70.05014346875C403.8771501696328,71.835288791,398.1768942324862,66.66137269599999,392.4844255302264,63.38205758424999C386.79195682796654,60.10274247249998,381.10727536059363,58.718028344,375.42259389322066,57.701417196474985C369.7379124258477,56.68480604894999,364.0532309584748,56.036297882399985,358.36822502298145,63.26011617424998C352.6832190874882,70.4839344661,346.99788868387463,85.58007921635,341.30509551349456,96.320602708375C335.61230234311455,107.06112620040001,329.91204640596794,113.4460284342,324.2195777037081,120.895325549075C318.5271090014483,128.34462266395,312.84242753407534,136.8583146599,307.1577460667024,141.736589471475C301.4730645993294,146.61486428305,295.78838313195644,147.85772191024998,290.10370166458347,152.04252869677498C284.4190201972105,156.22733548329998,278.73433872983753,163.35409142915,273.042194495698,168.56154640935C267.3500502615585,173.76900138955,261.6504432606525,177.05715540409997,255.95829902651295,182.94520123614998C250.26615479237344,188.8332470682,244.5814733250005,197.32118471775001,238.8967918576275,207.26360469797498C233.21211039025457,217.20602467819995,227.52742892288157,228.60292698909996,221.84274745550863,237.66350564179996C216.15806598813563,246.7240842945,210.47338452076266,253.44833928900002,204.78091581850288,258.14831744099996C199.0884471162431,262.84829559300005,193.38819117909648,265.52399690249996,187.69572247683672,270.43080945922503C182.00325377457693,275.33762201595,176.31857230720394,282.4755458199,170.63389083983097,288.3672860526C164.949209372458,294.2590262853,159.26452790508503,298.90458294675,153.57984643771204,300.962049214025C147.89516497033904,303.0195154813,142.21048350296607,302.4888913544,136.5180148007063,302.34109025469996C130.8255460984465,302.193289155,125.12529016129992,302.4283110825,119.43282145904014,300.96623970875C113.74035275678035,299.50416833500003,108.05567128940739,296.34500366000003,102.3709898220344,292.1987622725C96.68630835466143,288.052520885,91.00162688728847,282.919202785,85.31694541991548,282.86884784750004C79.63226395254252,282.81849291,73.94758248516952,287.85110113499996,68.25511378290975,292.2415181414C62.56264508064995,296.6319351478,56.86238914350336,300.3801609356,51.16992044124357,303.345268669725C45.47745173898378,306.31037640384994,39.79277027161081,308.49236608430004,34.108088804237845,309.38136284125C28.42340733686487,310.2703595982,22.738725869491898,309.86636343165,17.054044402118922,309.7295082937C11.369362934745949,309.59265315575,5.684681467372974,309.7229390464,2.842340733686487,309.78808199172505L0,309.85322493705Z"><title>Other</title></path><path fill="#d62728" d="M0,309.85322493705L2.842340733686487,309.78808199172505C5.684681467372974,309.7229390464,11.369362934745949,309.59265315575,17.054044402118922,309.7295082937C22.738725869491898,309.86636343165,28.42340733686487,310.2703595982,34.108088804237845,309.38136284125C39.79277027161081,308.49236608430004,45.47745173898378,306.31037640384994,51.16992044124357,303.345268669725C56.86238914350336,300.3801609356,62.56264508064995,296.6319351478,68.25511378290975,292.2415181414C73.94758248516952,287.85110113499996,79.63226395254252,282.81849291,85.31694541991548,282.86884784750004C91.00162688728847,282.919202785,96.68630835466143,288.052520885,102.37098982203442,292.1987622725C108.05567128940739,296.34500366000003,113.74035275678035,299.50416833500003,119.43282145904014,300.96623970875004C125.12529016129992,302.4283110825,130.8255460984465,302.193289155,136.5180148007063,302.34109025469996C142.21048350296607,302.4888913544,147.89516497033904,303.0195154813,153.57984643771204,300.962049214025C159.26452790508503,298.90458294675,164.949209372458,294.2590262853,170.63389083983097,288.3672860526C176.31857230720394,282.4755458199,182.00325377457693,275.33762201595,187.69572247683672,270.43080945922503C193.38819117909648,265.52399690249996,199.0884471162431,262.84829559300005,204.78091581850288,258.14831744099996C210.47338452076266,253.44833928900002,216.15806598813563,246.7240842945,221.8427474555086,237.66350564179996C227.52742892288157,228.60292698909996,233.21211039025457,217.20602467819995,238.8967918576275,207.26360469797498C244.5814733250005,197.32118471775001,250.26615479237344,188.8332470682,255.95829902651295,182.35038636115C261.6504432606525,175.86752565409998,267.3500502615585,171.38974188954998,273.042194495698,165.33971420284996C278.73433872983753,159.28968651614994,284.4190201972105,151.66741490729996,290.10370166458347,147.52321793527497C295.78838313195644,143.37902096324999,301.4730645993294,142.71289862805,307.1577460667024,137.960154259975C312.84242753407534,133.20740989190003,318.5271090014483,124.36804349095003,324.2195777037081,116.52949749032503C329.91204640596794,108.69095148970003,335.61230234311455,101.85322588940001,341.30509551349456,90.833079128875C346.99788868387463,79.81293236834999,352.6832190874882,64.61036444759998,358.36822502298145,57.40609529399998C364.0532309584748,50.20182614039999,369.7379124258477,50.99585575395,375.42259389322066,52.04736350847501C381.10727536059363,53.098871263000014,386.79195682796654,54.4078571585,392.4844255302264,57.321243708999994C398.1768942324862,60.23463025949999,403.8771501696328,64.752417465,409.56961887189254,61.93711229424999C415.2620875741524,59.12180712349999,420.94676904152533,48.97340957649999,426.6314505088983,41.70481715557499C432.31613197627127,34.436224734650004,438.0008134436442,30.04743743980001,443.6854949110172,30.612770915517512C449.37017637839017,31.178104391235006,455.05485784576314,36.69755863751999,460.74732654802284,43.0241714019175C466.4397952502827,49.350784166315,472.14005118742926,56.48455544882503,477.8325198896891,64.78870414140754C483.5249885919489,73.09285283399004,489.2096700593218,82.56737893664503,494.89435152669483,90.93693373719752C500.5790329940678,99.30648853775,506.26371446144077,106.57107203620001,511.9483959288137,109.59378421163501C517.6330773961868,112.61649638706997,523.3177588635598,111.39733723948997,529.0102275658195,112.29423691691746C534.7026962680793,113.19113659434497,540.4029522052259,116.20409509678,546.0954209074856,120.64049903720498C551.7878896097454,125.07690297762998,557.4725710771185,130.936752356045,563.1572525444914,138.31157569549998C568.8419340118644,145.686399034955,574.5266154792374,154.57619633545002,580.21097247849,165.89912514765C585.8953294777427,177.22205395985,591.5793620088751,190.978114283755,597.2715062430146,200.60140964797748C602.9636504771541,210.22470501219996,608.6639064143008,215.71523541674,614.3566995846808,221.30208588803C620.0494927550609,226.88893635932,625.7348231586744,232.57210689736004,631.4198290941677,235.78169329047503C637.104835029661,238.99127968359002,642.789516497034,239.72728193178,648.4741979644069,240.94830636315248C654.1588794317798,242.16933079452497,659.8435608991527,243.87537740908,665.5360296014126,245.08295830295C671.2284983036724,246.29053919682,676.928754240819,246.999654370005,682.6212229430788,248.66818034131748C688.3136916453386,250.33670631263,693.9983731127114,252.96464308207,699.6830545800844,254.4978933460125C705.3677360474575,256.031143609955,711.0524175148306,256.46970736839995,716.7370989822035,254.64837641589997C722.4217804495765,252.82704546339997,728.1064619169493,248.745819799955,733.7989306192093,244.0198971565525C739.491399321469,239.29397451315,745.1916552586157,233.92335488978998,750.8841239608754,229.16506347191998C756.5765926631351,224.40677205404998,762.261274130508,220.26080884167,767.945955597881,215.6506947306825C773.6306370652541,211.040580619695,779.315318532627,205.9663156101,782.1576592663135,203.4291831053025L785,200.892050600505L785,333.361706680005L782.1576592663135,332.5711927223025C779.315318532627,331.7806787646,773.6306370652541,330.199650849195,767.945955597881,327.50160554668247C762.261274130508,324.80356024417,756.5765926631351,320.98849755455,750.8841239608754,317.54717935362004C745.1916552586157,314.10586115269,739.491399321469,311.03828744045,733.7989306192093,307.28069829960253C728.1064619169493,303.523109158755,722.4217804495765,299.0755045893,716.7370989822035,295.27962326685C711.0524175148306,291.4837419444,705.3677360474575,288.339583868955,699.6830545800844,284.51057386226245C693.9983731127114,280.68156385557,688.3136916453386,276.16770191763,682.6212229430788,272.4405211238175C676.928754240819,268.713340330005,671.2284983036724,265.77284068032003,665.5360296014126,262.43155615195C659.8435608991527,259.09027162358,654.1588794317798,255.34820221652498,648.4741979644069,252.6050176589025C642.789516497034,249.86183310128,637.104835029661,248.11753339309004,631.4198290941677,244.12837186597505C625.7348231586744,240.13921033886004,620.0494927550609,233.90518699282003,614.3566995846808,227.91944291778C608.6639064143008,221.93369884274,602.9636504771541,216.1962340387,597.2715062430146,206.32844667555253C591.5793620088751,196.460659312405,585.8953294777427,182.46254939015,580.21097247849,170.94323505245004C574.5266154792374,159.42392071475,568.8419340118644,150.38340196160502,563.1572525444914,142.73054050739998C557.4725710771185,135.077679053195,551.7878896097454,128.81247489793,546.0954209074856,123.6417035047625C540.4029522052259,118.47093211159499,534.7026962680793,114.39459348052497,529.0102275658195,112.94265761252247C523.3177588635598,111.49072174451997,517.6330773961868,112.66318863958499,511.9483959288137,109.61713033789249C506.26371446144077,106.57107203620001,500.5790329940678,99.30648853775,494.89435152669483,90.93693373719752C489.2096700593218,82.56737893664503,483.5249885919489,73.09285283399004,477.8325198896891,64.78870414140754C472.14005118742926,56.48455544882503,466.4397952502827,49.350784166315,460.74732654802295,43.0241714019175C455.05485784576314,36.69755863751999,449.37017637839017,31.178104391235006,443.6854949110172,30.612770915517512C438.0008134436442,30.04743743980001,432.31613197627127,34.436224734650004,426.6314505088983,41.70481715557499C420.94676904152533,48.97340957649999,415.2620875741524,59.12180712349999,409.56961887189254,61.93711229424999C403.8771501696328,64.752417465,398.1768942324862,60.23463025949999,392.4844255302264,57.32124370899999C386.79195682796654,54.4078571585,381.10727536059363,53.098871263000014,375.42259389322066,52.04736350847501C369.7379124258477,50.99585575395,364.0532309584748,50.20182614039999,358.36822502298145,57.40609529399998C352.6832190874882,64.61036444759998,346.99788868387463,79.81293236834999,341.30509551349456,90.833079128875C335.61230234311455,101.85322588940001,329.91204640596794,108.69095148970003,324.2195777037081,116.52949749032503C318.5271090014483,124.36804349095003,312.84242753407534,133.20740989190003,307.1577460667024,137.960154259975C301.4730645993294,142.71289862805,295.78838313195644,143.37902096324999,290.10370166458347,147.52321793527497C284.4190201972105,151.66741490729996,278.73433872983753,159.28968651614994,273.042194495698,165.33971420284996C267.3500502615585,171.38974188954998,261.6504432606525,175.86752565409998,255.95829902651295,182.35038636115C250.26615479237344,188.8332470682,244.5814733250005,197.32118471775001,238.8967918576275,207.26360469797498C233.21211039025457,217.20602467819995,227.52742892288157,228.60292698909996,221.84274745550863,237.66350564179996C216.15806598813563,246.7240842945,210.47338452076266,253.44833928900002,204.78091581850288,258.14831744099996C199.0884471162431,262.84829559300005,193.38819117909648,265.52399690249996,187.69572247683672,270.43080945922503C182.00325377457693,275.33762201595,176.31857230720394,282.4755458199,170.63389083983097,288.3672860526C164.949209372458,294.2590262853,159.26452790508503,298.90458294675,153.57984643771204,300.962049214025C147.89516497033904,303.0195154813,142.21048350296607,302.4888913544,136.5180148007063,302.34109025469996C130.8255460984465,302.193289155,125.12529016129992,302.4283110825,119.43282145904014,300.96623970875C113.74035275678035,299.50416833500003,108.05567128940739,296.34500366000003,102.3709898220344,292.1987622725C96.68630835466143,288.052520885,91.00162688728847,282.919202785,85.31694541991548,282.86884784750004C79.63226395254252,282.81849291,73.94758248516952,287.85110113499996,68.25511378290975,292.2415181414C62.56264508064995,296.6319351478,56.86238914350336,300.3801609356,51.16992044124357,303.345268669725C45.47745173898378,306.31037640384994,39.79277027161081,308.49236608430004,34.108088804237845,309.38136284125C28.42340733686487,310.2703595982,22.738725869491898,309.86636343165,17.054044402118922,309.7295082937C11.369362934745949,309.59265315575,5.684681467372974,309.7229390464,2.842340733686487,309.78808199172505L0,309.85322493705Z"><title>Streaming</title></path><path fill="#8c564b" d="M0,185.82503168204997L2.842340733686487,186.33651036422498C5.684681467372974,186.8479890464,11.369362934745949,187.87094641074998,17.054044402118922,188.52479439119998C22.738725869491898,189.17864237165,28.42340733686487,189.4633809682,34.108088804237845,187.23595054625002C39.79277027161081,185.00852012430002,45.47745173898378,180.26892068384998,51.16992044124357,171.721625774725C56.86238914350336,163.17433086559996,62.56264508064995,150.81934048779996,68.25511378290975,141.0651694964C73.94758248516952,131.31099850499996,79.63226395254252,124.15764689999997,85.31694541991548,128.7225657C91.00162688728847,133.28748449999998,96.68630835466143,149.57067370499996,102.37098982203442,161.51021650049998C108.05567128940739,173.449759296,113.74035275678035,181.045655682,119.43282145904014,185.46177885199998C125.12529016129992,189.87790202200003,130.8255460984465,191.11425197600002,136.5180148007063,195.64091064945C142.21048350296607,200.1675693229,147.89516497033904,207.9845367158,153.57984643771204,211.628420711775C159.26452790508503,215.27230470774998,164.949209372458,214.7431053068,170.63389083983097,212.11121206885C176.31857230720394,209.47931883089998,182.00325377457693,204.74473175595003,187.69572247683672,203.12922491947498C193.38819117909648,201.513718083,199.0884471162431,203.017291485,204.78091581850288,202.61959766375C210.47338452076266,202.22190384249998,216.15806598813563,199.922942798,221.8427474555086,194.53165249330002C227.52742892288157,189.1403621886,233.21211039025457,180.65674262369998,238.8967918576275,173.92698126922497C244.5814733250005,167.19721991475,250.26615479237344,162.22131677069999,255.95829902651295,159.60897788589998C261.6504432606525,156.99663900109996,267.3500502615585,156.74786437554997,273.042194495698,153.66319133109997C278.73433872983753,150.57851828664994,284.4190201972105,144.65794682329997,290.10370166458347,141.81140122315C295.78838313195644,138.96485562299998,301.4730645993294,139.19233588605002,307.1577460667024,134.960231726075C312.84242753407534,130.72812756610003,318.5271090014483,122.03643898310001,324.2195777037081,114.36237014715003C329.91204640596794,106.68830131120002,335.61230234311455,100.03185222230002,341.30509551349456,89.09536758552501C346.99788868387463,78.15888294875,352.6832190874882,62.94236276409998,358.36822502298145,55.71032481952498C364.0532309584748,48.47828687494998,369.7379124258477,49.230731170449985,375.42259389322066,50.21916297197499C381.10727536059363,51.2075947735,386.79195682796654,52.43201408105,392.4844255302264,55.372145626025C398.1768942324862,58.312277171000005,403.8771501696328,62.96812095340001,409.56961887189254,60.26212655152502C415.2620875741524,57.55613214965001,420.94676904152533,47.488299563500014,426.6314505088983,40.26504800855002C432.31613197627127,33.04179645360002,438.0008134436442,28.663125929850036,443.6854949110172,29.262122285917528C449.37017637839017,29.86111864198502,455.05485784576314,35.43778187786999,460.74732654802284,41.78122168371749C466.4397952502827,48.12466148956499,472.14005118742926,55.23487786537502,477.8325198896891,63.57815896930753C483.5249885919489,71.92144007324003,489.2096700593218,81.497785905295,494.89435152669483,89.9294865773975C500.5790329940678,98.36118724949999,506.26371446144077,105.64824276165,511.9483959288137,108.69961742228497C517.6330773961868,111.75099208291998,523.3177588635598,110.56668589203996,529.0102275658195,111.52397535104245C534.7026962680793,112.48126481004495,540.4029522052259,115.58014991892996,546.0954209074856,120.06802597210496C551.7878896097454,124.55590202527998,557.4725710771185,130.432769022745,563.1572525444914,137.8143246747525C568.8419340118644,145.19588032676,574.5266154792374,154.08212463331,580.21097247849,165.30928749486C585.8953294777427,176.53645035641,591.5793620088751,190.10453177295997,597.2715062430146,199.61324552104247C602.9636504771541,209.121959269125,608.6639064143008,214.57130534874,614.3566995846808,220.06776700601003C620.0494927550609,225.56422866328,625.7348231586744,231.10780589820502,631.4198290941677,234.16257730167752C637.104835029661,237.21734870515002,642.789516497034,237.78331427717,648.4741979644069,238.8110307774775C654.1588794317798,239.83874727778502,659.8435608991527,241.32821470638,665.5360296014126,242.30177144641746C671.2284983036724,243.275328186455,676.928754240819,243.732974237935,682.6212229430788,245.1889361914C688.3136916453386,246.644898144865,693.9983731127114,249.099176000315,699.6830545800844,250.30427559033748C705.3677360474575,251.50937518035997,711.0524175148306,251.46529650495498,716.7370989822035,249.357637712425C722.4217804495765,247.24997891989497,728.1064619169493,243.07874001024,733.7989306192093,238.23844686257C739.491399321469,233.3981537149,745.1916552586157,227.888806329215,750.8841239608754,223.009514458965C756.5765926631351,218.13022258871501,762.261274130508,213.88098623390002,767.945955597881,209.038789343845C773.6306370652541,204.19659245379,779.315318532627,198.76143502849501,782.1576592663135,196.0438563158475L785,193.3262776032L785,200.892050600505L782.1576592663135,203.42918310530249C779.315318532627,205.9663156101,773.6306370652541,211.040580619695,767.945955597881,215.65069473068252C762.261274130508,220.26080884167,756.5765926631351,224.40677205404998,750.8841239608754,229.16506347191998C745.1916552586157,233.92335488978998,739.491399321469,239.29397451315,733.7989306192093,244.01989715655247C728.1064619169493,248.745819799955,722.4217804495765,252.82704546339997,716.7370989822035,254.64837641589997C711.0524175148306,256.46970736839995,705.3677360474575,256.031143609955,699.6830545800844,254.49789334601255C693.9983731127114,252.96464308207,688.3136916453386,250.33670631263,682.6212229430788,248.66818034131754C676.928754240819,246.999654370005,671.2284983036724,246.29053919682,665.5360296014126,245.08295830295C659.8435608991527,243.87537740908,654.1588794317798,242.16933079452497,648.4741979644069,240.94830636315248C642.789516497034,239.72728193178,637.104835029661,238.99127968359002,631.4198290941677,235.78169329047503C625.7348231586744,232.57210689736004,620.0494927550609,226.88893635932,614.3566995846808,221.30208588802998C608.6639064143008,215.71523541674,602.9636504771541,210.22470501219996,597.2715062430146,200.60140964797748C591.5793620088751,190.978114283755,585.8953294777427,177.22205395985,580.21097247849,165.89912514765C574.5266154792374,154.57619633545002,568.8419340118644,145.686399034955,563.1572525444914,138.31157569549998C557.4725710771185,130.936752356045,551.7878896097454,125.07690297762998,546.0954209074856,120.64049903720498C540.4029522052259,116.20409509678,534.7026962680793,113.19113659434497,529.0102275658195,112.29423691691746C523.3177588635598,111.39733723948997,517.6330773961868,112.61649638706997,511.9483959288137,109.593784211635C506.26371446144077,106.57107203620001,500.5790329940678,99.30648853775,494.89435152669483,90.93693373719752C489.2096700593218,82.56737893664503,483.5249885919489,73.09285283399004,477.8325198896891,64.78870414140754C472.14005118742926,56.48455544882503,466.4397952502827,49.350784166315,460.74732654802295,43.0241714019175C455.05485784576314,36.69755863751999,449.37017637839017,31.178104391235006,443.6854949110172,30.612770915517512C438.0008134436442,30.04743743980001,432.31613197627127,34.436224734650004,426.6314505088983,41.70481715557499C420.94676904152533,48.97340957649999,415.2620875741524,59.12180712349999,409.56961887189254,61.93711229424999C403.8771501696328,64.752417465,398.1768942324862,60.23463025949999,392.4844255302264,57.32124370899999C386.79195682796654,54.4078571585,381.10727536059363,53.098871263000014,375.42259389322066,52.04736350847501C369.7379124258477,50.99585575395,364.0532309584748,50.20182614039999,358.36822502298145,57.40609529399998C352.6832190874882,64.61036444759998,346.99788868387463,79.81293236834999,341.30509551349456,90.833079128875C335.61230234311455,101.85322588940001,329.91204640596794,108.69095148970003,324.2195777037081,116.52949749032503C318.5271090014483,124.36804349095003,312.84242753407534,133.20740989190003,307.1577460667024,137.960154259975C301.4730645993294,142.71289862805,295.78838313195644,143.37902096324999,290.10370166458347,147.52321793527497C284.4190201972105,151.66741490729996,278.73433872983753,159.28968651614994,273.042194495698,165.33971420284996C267.3500502615585,171.38974188954998,261.6504432606525,175.86752565409998,255.95829902651295,182.35038636115C250.26615479237344,188.8332470682,244.5814733250005,197.32118471775001,238.8967918576275,207.26360469797498C233.21211039025457,217.20602467819995,227.52742892288157,228.60292698909996,221.84274745550863,237.66350564179996C216.15806598813563,246.7240842945,210.47338452076266,253.44833928900002,204.78091581850288,258.14831744099996C199.0884471162431,262.84829559300005,193.38819117909648,265.52399690249996,187.69572247683672,270.43080945922503C182.00325377457693,275.33762201595,176.31857230720394,282.4755458199,170.63389083983097,288.3672860526C164.949209372458,294.2590262853,159.26452790508503,298.90458294675,153.57984643771204,300.962049214025C147.89516497033904,303.0195154813,142.21048350296607,302.4888913544,136.5180148007063,302.34109025469996C130.8255460984465,302.193289155,125.12529016129992,302.4283110825,119.43282145904014,300.96623970875C113.74035275678035,299.50416833500003,108.05567128940739,296.34500366000003,102.3709898220344,292.1987622725C96.68630835466143,288.052520885,91.00162688728847,282.919202785,85.31694541991548,282.86884784750004C79.63226395254252,282.81849291,73.94758248516952,287.85110113499996,68.25511378290975,292.2415181414C62.56264508064995,296.6319351478,56.86238914350336,300.3801609356,51.16992044124357,303.345268669725C45.47745173898378,306.31037640384994,39.79277027161081,308.49236608430004,34.108088804237845,309.38136284125C28.42340733686487,310.2703595982,22.738725869491898,309.86636343165,17.054044402118922,309.7295082937C11.369362934745949,309.59265315575,5.684681467372974,309.7229390464,2.842340733686487,309.78808199172505L0,309.85322493705Z"><title>Vinyl</title></path></g><g id="xAxis" transform="translate(0,360)" fill="none" font-size="10" font-family="sans-serif" text-anchor="middle"><path class="domain" stroke="currentColor" d="M0,0H785"/><g class="tick" opacity="1" transform="translate(34.108088804237845,0)"><line stroke="currentColor" y2="6"/><text fill="currentColor" y="9" dy="0.71em">1975</text></g><g class="tick" opacity="1" transform="translate(119.42503422415332,0)"><line stroke="currentColor" y2="6"/><text fill="currentColor" y="9" dy="0.71em">1980</text></g><g class="tick" opacity="1" transform="translate(204.7887030533897,0)"><line stroke="currentColor" y2="6"/><text fill="currentColor" y="9" dy="0.71em">1985</text></g><g class="tick" opacity="1" transform="translate(290.10370166458347,0)"><line stroke="currentColor" y2="6"/><text fill="currentColor" y="9" dy="0.71em">1990</text></g><g class="tick" opacity="1" transform="translate(375.42259389322066,0)"><line stroke="currentColor" y2="6"/><text fill="currentColor" y="9" dy="0.71em">1995</text></g><g class="tick" opacity="1" transform="translate(460.7395393131361,0)"><line stroke="currentColor" y2="6"/><text fill="currentColor" y="9" dy="0.71em">2000</text></g><g class="tick" opacity="1" transform="translate(546.1032081423724,0)"><line stroke="currentColor" y2="6"/><text fill="currentColor" y="9" dy="0.71em">2005</text></g><g class="tick" opacity="1" transform="translate(631.420153562288,0)"><line stroke="currentColor" y2="6"/><text fill="currentColor" y="9" dy="0.71em">2010</text></g><g class="tick" opacity="1" transform="translate(716.7370989822035,0)"><line stroke="currentColor" y2="6"/><text fill="currentColor" y="9" dy="0.71em">2015</text></g></g><text y="356" x="785" text-anchor="end" style="font-family: Arial, sans-serif; font-size: 12px; fill: rgb(123, 123, 123); font-weight: bold;">Year</text><text x="4" text-anchor="start" dominant-baseline="hanging" style="font-family: Arial, sans-serif; font-size: 12px; fill: rgb(123, 123, 123); font-weight: bold;">Revenues in millions (Adjusted for inflation)</text><g id="labels"><text x="255.95083625974644" y="304.20496680975" text-anchor="middle" alignment-baseline="middle" style="font-family: Arial, sans-serif; font-size: 10px; fill: black; font-weight: bold;">Tape</text><text x="443.6854949110172" y="184.39425535620003" text-anchor="middle" alignment-baseline="middle" style="font-family: Arial, sans-serif; font-size: 10px; fill: black; font-weight: bold;">Disc</text><text x="665.5282423665258" y="293.217389594955" text-anchor="middle" alignment-baseline="middle" style="font-family: Arial, sans-serif; font-size: 10px; fill: black; font-weight: bold;">Download</text><text x="529.0024403309327" y="116.54761036460248" text-anchor="middle" alignment-baseline="middle" style="font-family: Arial, sans-serif; font-size: 10px; fill: black; font-weight: bold;">Other</text><text x="785" y="267.126878640255" text-anchor="end" alignment-baseline="middle" style="font-family: Arial, sans-serif; font-size: 10px; fill: black; font-weight: bold;">Streaming</text><text x="85.31694541991548" y="197.39508998999997" text-anchor="middle" alignment-baseline="middle" style="font-family: Arial, sans-serif; font-size: 10px; fill: black; font-weight: bold;">Vinyl</text></g></g><text x="4" y="4" style="font-family: Arial, sans-serif; font-size: 12px; fill: black; font-weight: bold; dominant-baseline: hanging;"/></g></g></svg>
